<?xml version="1.0" encoding="UTF-8" standalone="no"?>
<!DOCTYPE svg PUBLIC "-//W3C//DTD SVG 1.1//EN" "http://www.w3.org/Graphics/SVG/1.1/DTD/svg11.dtd">
<!-- Создано Microsoft Visio, экспорт SVG инфологическая модель.svg Page-1 -->
<svg xmlns="http://www.w3.org/2000/svg" xmlns:xlink="http://www.w3.org/1999/xlink" xmlns:ev="http://www.w3.org/2001/xml-events"
		xmlns:v="http://schemas.microsoft.com/visio/2003/SVGExtensions/" width="8.26772in" height="11.6929in"
		viewBox="0 0 595.276 841.89" xml:space="preserve" color-interpolation-filters="sRGB" class="st8">
	<v:documentProperties v:langID="1049" v:metric="true" v:viewMarkup="false">
		<v:userDefs>
			<v:ud v:nameU="msvNoAutoConnect" v:val="VT0(1):26"/>
		</v:userDefs>
	</v:documentProperties>

	<style type="text/css">
	<![CDATA[
		.st1 {fill:#ffffff;stroke:#000000;stroke-linecap:round;stroke-linejoin:round;stroke-width:0.24}
		.st2 {fill:#000000;font-family:Calibri;font-size:1.24999em}
		.st3 {font-size:1em}
		.st4 {stroke:#000000;stroke-linecap:round;stroke-linejoin:round;stroke-width:0.75}
		.st5 {fill:#ffffff;stroke:none;stroke-linecap:butt;stroke-width:7.2}
		.st6 {marker-end:url(#mrkr4-160);stroke:#000000;stroke-linecap:round;stroke-linejoin:round;stroke-width:0.75}
		.st7 {fill:#000000;fill-opacity:1;stroke:#000000;stroke-opacity:1;stroke-width:0.22935779816514}
		.st8 {fill:none;fill-rule:evenodd;font-size:12px;overflow:visible;stroke-linecap:square;stroke-miterlimit:3}
	]]>
	</style>

	<defs id="Markers">
		<g id="lend4">
			<path d="M 2 1 L 0 0 L 2 -1 L 2 1 " style="stroke:none"/>
		</g>
		<marker id="mrkr4-160" class="st7" v:arrowType="4" v:arrowSize="2" v:setback="8.72" refX="-8.72" orient="auto"
				markerUnits="strokeWidth" overflow="visible">
			<use xlink:href="#lend4" transform="scale(-4.36,-4.36) "/>
		</marker>
	</defs>
	<g v:mID="0" v:index="1" v:groupContext="foregroundPage">
		<title>Страница-1</title>
		<v:pageProperties v:drawingScale="0.0393701" v:pageScale="0.0393701" v:drawingUnits="24" v:shadowOffsetX="8.50394"
				v:shadowOffsetY="-8.50394"/>
		<v:layer v:name="Соединительная линия" v:index="0"/>
		<g id="shape1-1" v:mID="1" v:groupContext="shape" transform="translate(49.7989,-790.051)">
			<title>Прямоугольник</title>
			<desc>Сотрудник</desc>
			<v:userDefs>
				<v:ud v:nameU="visVersion" v:val="VT0(15):26"/>
				<v:ud v:nameU="visMasterStencil" v:prompt="" v:val="VT4(Basic_M.vssx)"/>
			</v:userDefs>
			<v:textBlock v:margins="rect(4,4,4,4)" v:tabSpace="42.5197"/>
			<v:textRect cx="54.8471" cy="825.891" width="109.7" height="31.9966"/>
			<rect x="0" y="809.893" width="109.694" height="31.9966" class="st1"/>
			<text x="20.93" y="830.39" class="st2" v:langID="1049"><v:paragraph v:horizAlign="1"/><v:tabList/>Сотрудник</text>		</g>
		<g id="shape2-4" v:mID="2" v:groupContext="shape" transform="translate(457.235,-790.051)">
			<title>Прямоугольник.2</title>
			<desc>Клиент</desc>
			<v:userDefs>
				<v:ud v:nameU="visVersion" v:val="VT0(15):26"/>
				<v:ud v:nameU="visMasterStencil" v:prompt="" v:val="VT4(Basic_M.vssx)"/>
			</v:userDefs>
			<v:textBlock v:margins="rect(4,4,4,4)" v:tabSpace="42.5197"/>
			<v:textRect cx="54.8471" cy="825.891" width="109.7" height="31.9966"/>
			<rect x="0" y="809.893" width="109.694" height="31.9966" class="st1"/>
			<text x="32.25" y="830.39" class="st2" v:langID="1049"><v:paragraph v:horizAlign="1"/><v:tabList/>Клиент</text>		</g>
		<g id="shape3-7" v:mID="3" v:groupContext="shape" transform="translate(253.517,-502.082)">
			<title>Прямоугольник.3</title>
			<desc>Заказ</desc>
			<v:userDefs>
				<v:ud v:nameU="visVersion" v:val="VT0(15):26"/>
				<v:ud v:nameU="visMasterStencil" v:prompt="" v:val="VT4(Basic_M.vssx)"/>
			</v:userDefs>
			<v:textBlock v:margins="rect(4,4,4,4)" v:tabSpace="42.5197"/>
			<v:textRect cx="54.8471" cy="825.891" width="109.7" height="31.9966"/>
			<rect x="0" y="809.893" width="109.694" height="31.9966" class="st1"/>
			<text x="37.46" y="830.39" class="st2" v:langID="1049"><v:paragraph v:horizAlign="1"/><v:tabList/>Заказ</text>		</g>
		<g id="shape4-10" v:mID="4" v:groupContext="shape" transform="translate(49.7989,-214.112)">
			<title>Прямоугольник.4</title>
			<desc>Услуга</desc>
			<v:userDefs>
				<v:ud v:nameU="visVersion" v:val="VT0(15):26"/>
				<v:ud v:nameU="visMasterStencil" v:prompt="" v:val="VT4(Basic_M.vssx)"/>
			</v:userDefs>
			<v:textBlock v:margins="rect(4,4,4,4)" v:tabSpace="42.5197"/>
			<v:textRect cx="54.8471" cy="825.891" width="109.7" height="31.9966"/>
			<rect x="0" y="809.893" width="109.694" height="31.9966" class="st1"/>
			<text x="34.31" y="830.39" class="st2" v:langID="1049"><v:paragraph v:horizAlign="1"/><v:tabList/>Услуга</text>		</g>
		<g id="shape5-13" v:mID="5" v:groupContext="shape" transform="translate(457.235,-214.112)">
			<title>Прямоугольник.5</title>
			<desc>Материал</desc>
			<v:userDefs>
				<v:ud v:nameU="visVersion" v:val="VT0(15):26"/>
				<v:ud v:nameU="visMasterStencil" v:prompt="" v:val="VT4(Basic_M.vssx)"/>
			</v:userDefs>
			<v:textBlock v:margins="rect(4,4,4,4)" v:tabSpace="42.5197"/>
			<v:textRect cx="54.8471" cy="825.891" width="109.7" height="31.9966"/>
			<rect x="0" y="809.893" width="109.694" height="31.9966" class="st1"/>
			<text x="22.79" y="830.39" class="st2" v:langID="1049"><v:paragraph v:horizAlign="1"/><v:tabList/>Материал</text>		</g>
		<g id="shape6-16" v:mID="6" v:groupContext="shape" transform="translate(49.7989,-734.057)">
			<title>Эллипс</title>
			<desc>ID сотрудника</desc>
			<v:userDefs>
				<v:ud v:nameU="visVersion" v:val="VT0(15):26"/>
				<v:ud v:nameU="visMasterStencil" v:prompt="" v:val="VT4(Basic_M.vssx)"/>
			</v:userDefs>
			<v:textBlock v:margins="rect(4,4,4,4)" v:tabSpace="42.5197"/>
			<v:textRect cx="54.8471" cy="825.891" width="95.99" height="27.997"/>
			<path d="M0 825.89 A54.8471 15.9983 0 0 1 109.69 825.89 A54.8471 15.9983 0 0 1 0 825.89 Z" class="st1"/>
			<text x="48.34" y="821.39" class="st2" v:langID="1033"><v:paragraph v:horizAlign="1"/><v:tabList/>ID<tspan class="st3"
						v:langID="1049"> </tspan><tspan x="18.16" dy="1.2em" class="st3" v:langID="1049">сотрудника</tspan></text>		</g>
		<g id="shape7-21" v:mID="7" v:groupContext="shape" transform="translate(49.7989,-654.065)">
			<title>Эллипс.7</title>
			<desc>ФИО</desc>
			<v:userDefs>
				<v:ud v:nameU="visVersion" v:val="VT0(15):26"/>
				<v:ud v:nameU="visMasterStencil" v:prompt="" v:val="VT4(Basic_M.vssx)"/>
			</v:userDefs>
			<v:textBlock v:margins="rect(4,4,4,4)" v:tabSpace="42.5197"/>
			<v:textRect cx="54.8471" cy="825.891" width="95.99" height="27.997"/>
			<path d="M0 825.89 A54.8471 15.9983 0 0 1 109.69 825.89 A54.8471 15.9983 0 0 1 0 825.89 Z" class="st1"/>
			<text x="39.84" y="830.39" class="st2" v:langID="1049"><v:paragraph v:horizAlign="1"/><v:tabList/>ФИО</text>		</g>
		<g id="shape8-24" v:mID="8" v:groupContext="shape" transform="translate(49.7989,-694.061)">
			<title>Эллипс.8</title>
			<desc>Должность</desc>
			<v:userDefs>
				<v:ud v:nameU="visVersion" v:val="VT0(15):26"/>
				<v:ud v:nameU="visMasterStencil" v:prompt="" v:val="VT4(Basic_M.vssx)"/>
			</v:userDefs>
			<v:textBlock v:margins="rect(4,4,4,4)" v:tabSpace="42.5197"/>
			<v:textRect cx="54.8471" cy="825.891" width="95.99" height="27.997"/>
			<path d="M0 825.89 A54.8471 15.9983 0 0 1 109.69 825.89 A54.8471 15.9983 0 0 1 0 825.89 Z" class="st1"/>
			<text x="19.5" y="830.39" class="st2" v:langID="1049"><v:paragraph v:horizAlign="1"/><v:tabList/>Должность</text>		</g>
		<g id="shape9-27" v:mID="9" v:groupContext="shape" transform="translate(49.7989,-614.07)">
			<title>Эллипс.9</title>
			<desc>Паспорт</desc>
			<v:userDefs>
				<v:ud v:nameU="visVersion" v:val="VT0(15):26"/>
				<v:ud v:nameU="visMasterStencil" v:prompt="" v:val="VT4(Basic_M.vssx)"/>
			</v:userDefs>
			<v:textBlock v:margins="rect(4,4,4,4)" v:tabSpace="42.5197"/>
			<v:textRect cx="54.8471" cy="825.891" width="95.99" height="27.997"/>
			<path d="M0 825.89 A54.8471 15.9983 0 0 1 109.69 825.89 A54.8471 15.9983 0 0 1 0 825.89 Z" class="st1"/>
			<text x="28.72" y="830.39" class="st2" v:langID="1049"><v:paragraph v:horizAlign="1"/><v:tabList/>Паспорт</text>		</g>
		<g id="shape13-30" v:mID="13" v:groupContext="shape" transform="translate(457.235,-734.057)">
			<title>Эллипс.13</title>
			<desc>IDклиента</desc>
			<v:userDefs>
				<v:ud v:nameU="visVersion" v:val="VT0(15):26"/>
				<v:ud v:nameU="visMasterStencil" v:prompt="" v:val="VT4(Basic_M.vssx)"/>
			</v:userDefs>
			<v:textBlock v:margins="rect(4,4,4,4)" v:tabSpace="42.5197"/>
			<v:textRect cx="54.8471" cy="825.891" width="95.99" height="27.997"/>
			<path d="M0 825.89 A54.8471 15.9983 0 0 1 109.69 825.89 A54.8471 15.9983 0 0 1 0 825.89 Z" class="st1"/>
			<text x="22.75" y="830.39" class="st2" v:langID="1033"><v:paragraph v:horizAlign="1"/><v:tabList/>ID<tspan class="st3"
						v:langID="1049">клиента</tspan></text>		</g>
		<g id="shape14-34" v:mID="14" v:groupContext="shape" transform="translate(457.235,-694.061)">
			<title>Эллипс.14</title>
			<desc>ФИО</desc>
			<v:userDefs>
				<v:ud v:nameU="visVersion" v:val="VT0(15):26"/>
				<v:ud v:nameU="visMasterStencil" v:prompt="" v:val="VT4(Basic_M.vssx)"/>
			</v:userDefs>
			<v:textBlock v:margins="rect(4,4,4,4)" v:tabSpace="42.5197"/>
			<v:textRect cx="54.8471" cy="825.891" width="95.99" height="27.997"/>
			<path d="M0 825.89 A54.8471 15.9983 0 0 1 109.69 825.89 A54.8471 15.9983 0 0 1 0 825.89 Z" class="st1"/>
			<text x="39.84" y="830.39" class="st2" v:langID="1049"><v:paragraph v:horizAlign="1"/><v:tabList/>ФИО</text>		</g>
		<g id="shape15-37" v:mID="15" v:groupContext="shape" transform="translate(457.235,-654.065)">
			<title>Эллипс.15</title>
			<desc>Паспорт</desc>
			<v:userDefs>
				<v:ud v:nameU="visVersion" v:val="VT0(15):26"/>
				<v:ud v:nameU="visMasterStencil" v:prompt="" v:val="VT4(Basic_M.vssx)"/>
			</v:userDefs>
			<v:textBlock v:margins="rect(4,4,4,4)" v:tabSpace="42.5197"/>
			<v:textRect cx="54.8471" cy="825.891" width="95.99" height="27.997"/>
			<path d="M0 825.89 A54.8471 15.9983 0 0 1 109.69 825.89 A54.8471 15.9983 0 0 1 0 825.89 Z" class="st1"/>
			<text x="28.72" y="830.39" class="st2" v:langID="1049"><v:paragraph v:horizAlign="1"/><v:tabList/>Паспорт</text>		</g>
		<g id="shape16-40" v:mID="16" v:groupContext="shape" transform="translate(457.235,-614.07)">
			<title>Эллипс.16</title>
			<desc>Телефон</desc>
			<v:userDefs>
				<v:ud v:nameU="visVersion" v:val="VT0(15):26"/>
				<v:ud v:nameU="visMasterStencil" v:prompt="" v:val="VT4(Basic_M.vssx)"/>
			</v:userDefs>
			<v:textBlock v:margins="rect(4,4,4,4)" v:tabSpace="42.5197"/>
			<v:textRect cx="54.8471" cy="825.891" width="95.99" height="27.997"/>
			<path d="M0 825.89 A54.8471 15.9983 0 0 1 109.69 825.89 A54.8471 15.9983 0 0 1 0 825.89 Z" class="st1"/>
			<text x="27.26" y="830.39" class="st2" v:langID="1049"><v:paragraph v:horizAlign="1"/><v:tabList/>Телефон</text>		</g>
		<g id="shape19-43" v:mID="19" v:groupContext="shape" transform="translate(253.517,-454.087)">
			<title>Эллипс.19</title>
			<desc>IDзаказа</desc>
			<v:userDefs>
				<v:ud v:nameU="visVersion" v:val="VT0(15):26"/>
				<v:ud v:nameU="visMasterStencil" v:prompt="" v:val="VT4(Basic_M.vssx)"/>
			</v:userDefs>
			<v:textBlock v:margins="rect(4,4,4,4)" v:tabSpace="42.5197"/>
			<v:textRect cx="54.8471" cy="825.891" width="95.99" height="27.997"/>
			<path d="M0 825.89 A54.8471 15.9983 0 0 1 109.69 825.89 A54.8471 15.9983 0 0 1 0 825.89 Z" class="st1"/>
			<text x="27.74" y="830.39" class="st2" v:langID="1033"><v:paragraph v:horizAlign="1"/><v:tabList/>ID<tspan class="st3"
						v:langID="1049">заказа</tspan></text>		</g>
		<g id="shape20-47" v:mID="20" v:groupContext="shape" transform="translate(49.7989,-166.118)">
			<title>Эллипс.20</title>
			<desc>IDуслуги</desc>
			<v:userDefs>
				<v:ud v:nameU="visVersion" v:val="VT0(15):26"/>
				<v:ud v:nameU="visMasterStencil" v:prompt="" v:val="VT4(Basic_M.vssx)"/>
			</v:userDefs>
			<v:textBlock v:margins="rect(4,4,4,4)" v:tabSpace="42.5197"/>
			<v:textRect cx="54.8471" cy="825.891" width="95.99" height="27.997"/>
			<path d="M0 825.89 A54.8471 15.9983 0 0 1 109.69 825.89 A54.8471 15.9983 0 0 1 0 825.89 Z" class="st1"/>
			<text x="27.91" y="830.39" class="st2" v:langID="1033"><v:paragraph v:horizAlign="1"/><v:tabList/>ID<tspan class="st3"
						v:langID="1049">услуги</tspan></text>		</g>
		<g id="shape21-51" v:mID="21" v:groupContext="shape" transform="translate(253.517,-414.091)">
			<title>Эллипс.21</title>
			<desc>Тип заказа</desc>
			<v:userDefs>
				<v:ud v:nameU="visVersion" v:val="VT0(15):26"/>
				<v:ud v:nameU="visMasterStencil" v:prompt="" v:val="VT4(Basic_M.vssx)"/>
			</v:userDefs>
			<v:textBlock v:margins="rect(4,4,4,4)" v:tabSpace="42.5197"/>
			<v:textRect cx="54.8471" cy="825.891" width="95.99" height="27.997"/>
			<path d="M0 825.89 A54.8471 15.9983 0 0 1 109.69 825.89 A54.8471 15.9983 0 0 1 0 825.89 Z" class="st1"/>
			<text x="20.94" y="830.39" class="st2" v:langID="1049"><v:paragraph v:horizAlign="1"/><v:tabList/>Тип заказа</text>		</g>
		<g id="shape22-54" v:mID="22" v:groupContext="shape" transform="translate(253.517,-374.095)">
			<title>Эллипс.22</title>
			<desc>Количество</desc>
			<v:userDefs>
				<v:ud v:nameU="visVersion" v:val="VT0(15):26"/>
				<v:ud v:nameU="visMasterStencil" v:prompt="" v:val="VT4(Basic_M.vssx)"/>
			</v:userDefs>
			<v:textBlock v:margins="rect(4,4,4,4)" v:tabSpace="42.5197"/>
			<v:textRect cx="54.8471" cy="825.891" width="95.99" height="27.997"/>
			<path d="M0 825.89 A54.8471 15.9983 0 0 1 109.69 825.89 A54.8471 15.9983 0 0 1 0 825.89 Z" class="st1"/>
			<text x="18.07" y="830.39" class="st2" v:langID="1049"><v:paragraph v:horizAlign="1"/><v:tabList/>Количество</text>		</g>
		<g id="shape23-57" v:mID="23" v:groupContext="shape" transform="translate(253.517,-334.1)">
			<title>Эллипс.23</title>
			<desc>Краткое описание</desc>
			<v:userDefs>
				<v:ud v:nameU="visVersion" v:val="VT0(15):26"/>
				<v:ud v:nameU="visMasterStencil" v:prompt="" v:val="VT4(Basic_M.vssx)"/>
			</v:userDefs>
			<v:textBlock v:margins="rect(4,4,4,4)" v:tabSpace="42.5197"/>
			<v:textRect cx="54.8471" cy="825.891" width="95.99" height="27.997"/>
			<path d="M0 825.89 A54.8471 15.9983 0 0 1 109.69 825.89 A54.8471 15.9983 0 0 1 0 825.89 Z" class="st1"/>
			<text x="29.17" y="821.39" class="st2" v:langID="1049"><v:paragraph v:horizAlign="1"/><v:tabList/>Краткое <tspan
						x="24.37" dy="1.2em" class="st3">описание</tspan></text>		</g>
		<g id="shape24-61" v:mID="24" v:groupContext="shape" transform="translate(253.517,-294.104)">
			<title>Эллипс.24</title>
			<desc>Стоимость</desc>
			<v:userDefs>
				<v:ud v:nameU="visVersion" v:val="VT0(15):26"/>
				<v:ud v:nameU="visMasterStencil" v:prompt="" v:val="VT4(Basic_M.vssx)"/>
			</v:userDefs>
			<v:textBlock v:margins="rect(4,4,4,4)" v:tabSpace="42.5197"/>
			<v:textRect cx="54.8471" cy="825.891" width="95.99" height="27.997"/>
			<path d="M0 825.89 A54.8471 15.9983 0 0 1 109.69 825.89 A54.8471 15.9983 0 0 1 0 825.89 Z" class="st1"/>
			<text x="21.31" y="830.39" class="st2" v:langID="1049"><v:paragraph v:horizAlign="1"/><v:tabList/>Стоимость</text>		</g>
		<g id="shape25-64" v:mID="25" v:groupContext="shape" transform="translate(253.517,-214.112)">
			<title>Эллипс.25</title>
			<desc>Дата окончания</desc>
			<v:userDefs>
				<v:ud v:nameU="visVersion" v:val="VT0(15):26"/>
				<v:ud v:nameU="visMasterStencil" v:prompt="" v:val="VT4(Basic_M.vssx)"/>
			</v:userDefs>
			<v:textBlock v:margins="rect(4,4,4,4)" v:tabSpace="42.5197"/>
			<v:textRect cx="54.8471" cy="825.891" width="95.99" height="27.997"/>
			<path d="M0 825.89 A54.8471 15.9983 0 0 1 109.69 825.89 A54.8471 15.9983 0 0 1 0 825.89 Z" class="st1"/>
			<text x="39.93" y="821.39" class="st2" v:langID="1049"><v:paragraph v:horizAlign="1"/><v:tabList/>Дата <tspan x="20.72"
						dy="1.2em" class="st3">окончания</tspan></text>		</g>
		<g id="shape27-68" v:mID="27" v:groupContext="shape" transform="translate(49.7989,-86.1261)">
			<title>Эллипс.27</title>
			<desc>Наименование услуги</desc>
			<v:userDefs>
				<v:ud v:nameU="visVersion" v:val="VT0(15):26"/>
				<v:ud v:nameU="visMasterStencil" v:prompt="" v:val="VT4(Basic_M.vssx)"/>
			</v:userDefs>
			<v:textBlock v:margins="rect(4,4,4,4)" v:tabSpace="42.5197"/>
			<v:textRect cx="54.8471" cy="825.891" width="95.99" height="27.997"/>
			<path d="M0 825.89 A54.8471 15.9983 0 0 1 109.69 825.89 A54.8471 15.9983 0 0 1 0 825.89 Z" class="st1"/>
			<text x="14.56" y="821.39" class="st2" v:langID="1049"><v:paragraph v:horizAlign="1"/><v:tabList/>Наименован<tspan
						x="24.93" dy="1.2em" class="st3">ие услуги</tspan></text>		</g>
		<g id="shape28-72" v:mID="28" v:groupContext="shape" transform="translate(49.7989,-46.1304)">
			<title>Эллипс.28</title>
			<desc>Стоимость</desc>
			<v:userDefs>
				<v:ud v:nameU="visVersion" v:val="VT0(15):26"/>
				<v:ud v:nameU="visMasterStencil" v:prompt="" v:val="VT4(Basic_M.vssx)"/>
			</v:userDefs>
			<v:textBlock v:margins="rect(4,4,4,4)" v:tabSpace="42.5197"/>
			<v:textRect cx="54.8471" cy="825.891" width="95.99" height="27.997"/>
			<path d="M0 825.89 A54.8471 15.9983 0 0 1 109.69 825.89 A54.8471 15.9983 0 0 1 0 825.89 Z" class="st1"/>
			<text x="21.31" y="830.39" class="st2" v:langID="1049"><v:paragraph v:horizAlign="1"/><v:tabList/>Стоимость</text>		</g>
		<g id="shape29-75" v:mID="29" v:groupContext="shape" transform="translate(49.7989,-6.13471)">
			<title>Эллипс.29</title>
			<desc>Материал</desc>
			<v:userDefs>
				<v:ud v:nameU="visVersion" v:val="VT0(15):26"/>
				<v:ud v:nameU="visMasterStencil" v:prompt="" v:val="VT4(Basic_M.vssx)"/>
			</v:userDefs>
			<v:textBlock v:margins="rect(4,4,4,4)" v:tabSpace="42.5197"/>
			<v:textRect cx="54.8471" cy="825.891" width="95.99" height="27.997"/>
			<path d="M0 825.89 A54.8471 15.9983 0 0 1 109.69 825.89 A54.8471 15.9983 0 0 1 0 825.89 Z" class="st1"/>
			<text x="22.79" y="830.39" class="st2" v:langID="1049"><v:paragraph v:horizAlign="1"/><v:tabList/>Материал</text>		</g>
		<g id="shape30-78" v:mID="30" v:groupContext="shape" transform="translate(49.7989,-126.122)">
			<title>Эллипс.30</title>
			<desc>Тип услуги</desc>
			<v:userDefs>
				<v:ud v:nameU="visVersion" v:val="VT0(15):26"/>
				<v:ud v:nameU="visMasterStencil" v:prompt="" v:val="VT4(Basic_M.vssx)"/>
			</v:userDefs>
			<v:textBlock v:margins="rect(4,4,4,4)" v:tabSpace="42.5197"/>
			<v:textRect cx="54.8471" cy="825.891" width="95.99" height="27.997"/>
			<path d="M0 825.89 A54.8471 15.9983 0 0 1 109.69 825.89 A54.8471 15.9983 0 0 1 0 825.89 Z" class="st1"/>
			<text x="21.1" y="830.39" class="st2" v:langID="1049"><v:paragraph v:horizAlign="1"/><v:tabList/>Тип услуги</text>		</g>
		<g id="shape31-81" v:mID="31" v:groupContext="shape" transform="translate(457.235,-574.074)">
			<title>Эллипс.31</title>
			<desc>Адрес</desc>
			<v:userDefs>
				<v:ud v:nameU="visVersion" v:val="VT0(15):26"/>
				<v:ud v:nameU="visMasterStencil" v:prompt="" v:val="VT4(Basic_M.vssx)"/>
			</v:userDefs>
			<v:textBlock v:margins="rect(4,4,4,4)" v:tabSpace="42.5197"/>
			<v:textRect cx="54.8471" cy="825.891" width="95.99" height="27.997"/>
			<path d="M0 825.89 A54.8471 15.9983 0 0 1 109.69 825.89 A54.8471 15.9983 0 0 1 0 825.89 Z" class="st1"/>
			<text x="35.48" y="830.39" class="st2" v:langID="1049"><v:paragraph v:horizAlign="1"/><v:tabList/>Адрес</text>		</g>
		<g id="shape32-84" v:mID="32" v:groupContext="shape" v:layerMember="0" transform="translate(42.7123,-230.111)">
			<title>Динамическая соединительная линия</title>
			<path d="M7.09 841.89 L7.09 1049.87" class="st4"/>
		</g>
		<g id="shape33-87" v:mID="33" v:groupContext="shape" v:layerMember="0" transform="translate(260.603,-518.08)">
			<title>Динамическая соединительная линия.33</title>
			<path d="M-7.09 841.89 L-7.09 1129.86" class="st4"/>
		</g>
		<g id="shape34-90" v:mID="34" v:groupContext="shape" v:layerMember="0" transform="translate(42.7123,-806.049)">
			<title>Динамическая соединительная линия.34</title>
			<path d="M7.09 841.89 L7.09 1057.87" class="st4"/>
		</g>
		<g id="shape35-93" v:mID="35" v:groupContext="shape" v:layerMember="0" transform="translate(450.148,-806.049)">
			<title>Динамическая соединительная линия.35</title>
			<path d="M7.09 841.89 L7.09 1057.87" class="st4"/>
		</g>
		<g id="shape37-96" v:mID="37" v:groupContext="shape" transform="translate(457.235,-166.118)">
			<title>Эллипс.37</title>
			<desc>ID материала</desc>
			<v:userDefs>
				<v:ud v:nameU="visVersion" v:val="VT0(15):26"/>
				<v:ud v:nameU="visMasterStencil" v:prompt="" v:val="VT4(Basic_M.vssx)"/>
			</v:userDefs>
			<v:textBlock v:margins="rect(4,4,4,4)" v:tabSpace="42.5197"/>
			<v:textRect cx="54.8471" cy="825.891" width="95.99" height="27.997"/>
			<path d="M0 825.89 A54.8471 15.9983 0 0 1 109.69 825.89 A54.8471 15.9983 0 0 1 0 825.89 Z" class="st1"/>
			<text x="12.34" y="830.39" class="st2" v:langID="1033"><v:paragraph v:horizAlign="1"/><v:tabList/>ID<tspan class="st3"
						v:langID="1049"> </tspan><tspan class="st3" v:langID="1049">материала</tspan></text>		</g>
		<g id="shape38-101" v:mID="38" v:groupContext="shape" transform="translate(457.235,-126.122)">
			<title>Эллипс.38</title>
			<desc>Название</desc>
			<v:userDefs>
				<v:ud v:nameU="visVersion" v:val="VT0(15):26"/>
				<v:ud v:nameU="visMasterStencil" v:prompt="" v:val="VT4(Basic_M.vssx)"/>
			</v:userDefs>
			<v:textBlock v:margins="rect(4,4,4,4)" v:tabSpace="42.5197"/>
			<v:textRect cx="54.8471" cy="825.891" width="95.99" height="27.997"/>
			<path d="M0 825.89 A54.8471 15.9983 0 0 1 109.69 825.89 A54.8471 15.9983 0 0 1 0 825.89 Z" class="st1"/>
			<text x="24.43" y="830.39" class="st2" v:langID="1049"><v:paragraph v:horizAlign="1"/><v:tabList/>Название</text>		</g>
		<g id="shape39-104" v:mID="39" v:groupContext="shape" transform="translate(253.517,-254.108)">
			<title>Эллипс.39</title>
			<desc>Адрес доставки</desc>
			<v:userDefs>
				<v:ud v:nameU="visVersion" v:val="VT0(15):26"/>
				<v:ud v:nameU="visMasterStencil" v:prompt="" v:val="VT4(Basic_M.vssx)"/>
			</v:userDefs>
			<v:textBlock v:margins="rect(4,4,4,4)" v:tabSpace="42.5197"/>
			<v:textRect cx="54.8471" cy="825.891" width="95.99" height="27.997"/>
			<path d="M0 825.89 A54.8471 15.9983 0 0 1 109.69 825.89 A54.8471 15.9983 0 0 1 0 825.89 Z" class="st1"/>
			<text x="35.48" y="821.39" class="st2" v:langID="1049"><v:paragraph v:horizAlign="1"/><v:tabList/>Адрес <tspan
						x="25.91" dy="1.2em" class="st3">доставки</tspan></text>		</g>
		<g id="shape40-108" v:mID="40" v:groupContext="shape" transform="translate(457.235,-86.1261)">
			<title>Эллипс.40</title>
			<desc>Наличие</desc>
			<v:userDefs>
				<v:ud v:nameU="visVersion" v:val="VT0(15):26"/>
				<v:ud v:nameU="visMasterStencil" v:prompt="" v:val="VT4(Basic_M.vssx)"/>
			</v:userDefs>
			<v:textBlock v:margins="rect(4,4,4,4)" v:tabSpace="42.5197"/>
			<v:textRect cx="54.8471" cy="825.891" width="95.99" height="27.997"/>
			<path d="M0 825.89 A54.8471 15.9983 0 0 1 109.69 825.89 A54.8471 15.9983 0 0 1 0 825.89 Z" class="st1"/>
			<text x="27.4" y="830.39" class="st2" v:langID="1049"><v:paragraph v:horizAlign="1"/><v:tabList/>Наличие</text>		</g>
		<g id="shape41-111" v:mID="41" v:groupContext="shape" v:layerMember="0" transform="translate(450.148,-230.111)">
			<title>Динамическая соединительная линия.41</title>
			<path d="M7.09 841.89 L7.09 1009.87" class="st4"/>
		</g>
		<g id="shape42-114" v:mID="42" v:groupContext="shape" transform="translate(457.235,-46.1304)">
			<title>Эллипс.42</title>
			<desc>Стоимость</desc>
			<v:userDefs>
				<v:ud v:nameU="visVersion" v:val="VT0(15):26"/>
				<v:ud v:nameU="visMasterStencil" v:prompt="" v:val="VT4(Basic_M.vssx)"/>
			</v:userDefs>
			<v:textBlock v:margins="rect(4,4,4,4)" v:tabSpace="42.5197"/>
			<v:textRect cx="54.8471" cy="825.891" width="95.99" height="27.997"/>
			<path d="M0 825.89 A54.8471 15.9983 0 0 1 109.69 825.89 A54.8471 15.9983 0 0 1 0 825.89 Z" class="st1"/>
			<text x="21.31" y="830.39" class="st2" v:langID="1049"><v:paragraph v:horizAlign="1"/><v:tabList/>Стоимость</text>		</g>
		<g id="shape43-117" v:mID="43" v:groupContext="shape" transform="translate(175.164,-654.065)">
			<title>Ромб</title>
			<desc>Оформлен и внесён в БД</desc>
			<v:userDefs>
				<v:ud v:nameU="visVersion" v:prompt="" v:val="VT0(15):26"/>
				<v:ud v:nameU="visMasterStencil" v:prompt="" v:val="VT4(Basic_M.vssx)"/>
			</v:userDefs>
			<v:textBlock v:margins="rect(4,4,4,4)" v:tabSpace="42.5197"/>
			<v:textRect cx="54.8471" cy="811.036" width="109.7" height="61.7077"/>
			<path d="M54.85 841.89 L109.69 811.04 L54.85 780.18 L0 811.04 L54.85 841.89 Z" class="st1"/>
			<text x="14.92" y="806.54" class="st2" v:langID="1049"><v:paragraph v:horizAlign="1"/><v:tabList/>Оформлен и <tspan
						x="16.75" dy="1.2em" class="st3">внесён в БД</tspan></text>		</g>
		<g id="shape44-121" v:mID="44" v:groupContext="shape" transform="translate(331.87,-654.065)">
			<title>Ромб.44</title>
			<desc>Принадлежит</desc>
			<v:userDefs>
				<v:ud v:nameU="visVersion" v:prompt="" v:val="VT0(15):26"/>
				<v:ud v:nameU="visMasterStencil" v:prompt="" v:val="VT4(Basic_M.vssx)"/>
			</v:userDefs>
			<v:textBlock v:margins="rect(4,4,4,4)" v:tabSpace="42.5197"/>
			<v:textRect cx="54.8471" cy="811.036" width="109.7" height="61.7077"/>
			<path d="M54.85 841.89 L109.69 811.04 L54.85 780.18 L0 811.04 L54.85 841.89 Z" class="st1"/>
			<text x="10.72" y="815.54" class="st2" v:langID="1049"><v:paragraph v:horizAlign="1"/><v:tabList/>Принадлежит</text>		</g>
		<g id="shape45-124" v:mID="45" v:groupContext="shape" transform="translate(253.517,-126.122)">
			<title>Ромб.45</title>
			<desc>Обеспечивает</desc>
			<v:userDefs>
				<v:ud v:nameU="visVersion" v:prompt="" v:val="VT0(15):26"/>
				<v:ud v:nameU="visMasterStencil" v:prompt="" v:val="VT4(Basic_M.vssx)"/>
			</v:userDefs>
			<v:textBlock v:margins="rect(4,4,4,4)" v:tabSpace="42.5197"/>
			<v:textRect cx="62.6825" cy="811.036" width="125.37" height="61.7077"/>
			<path d="M62.68 841.89 L125.36 811.04 L62.68 780.18 L0 811.04 L62.68 841.89 Z" class="st1"/>
			<text x="17.79" y="815.54" class="st2" v:langID="1049"><v:paragraph v:horizAlign="1"/><v:tabList/>Обеспечивает</text>		</g>
		<g id="shape46-127" v:mID="46" v:groupContext="shape" transform="translate(49.7989,-399.235)">
			<title>Ромб.46</title>
			<desc>Входит</desc>
			<v:userDefs>
				<v:ud v:nameU="visVersion" v:prompt="" v:val="VT0(15):26"/>
				<v:ud v:nameU="visMasterStencil" v:prompt="" v:val="VT4(Basic_M.vssx)"/>
			</v:userDefs>
			<v:textBlock v:margins="rect(4,4,4,4)" v:tabSpace="42.5197"/>
			<v:textRect cx="70.5178" cy="811.036" width="141.04" height="61.7077"/>
			<path d="M70.52 841.89 L141.04 811.04 L70.52 780.18 L0 811.04 L70.52 841.89 Z" class="st1"/>
			<text x="48.09" y="815.54" class="st2" v:langID="1049"><v:paragraph v:horizAlign="1"/><v:tabList/>Входит  </text>		</g>
		<g id="shape47-130" v:mID="47" v:groupContext="shape" v:layerMember="0" transform="translate(159.493,-806.049)">
			<title>Динамическая соединительная линия.47</title>
			<desc>1</desc>
			<v:textBlock v:margins="rect(4,4,4,4)" v:tabSpace="42.5197"/>
			<v:textRect cx="14.1732" cy="850.54" width="75.01" height="26.0035"/>
			<path d="M0 841.89 L5.31 841.89 L5.31 963.02 L15.67 963.02" class="st4"/>
			<rect v:rectContext="textBkgnd" x="10.3721" y="841.54" width="7.60254" height="18" class="st5"/>
			<text x="10.37" y="855.04" class="st2" v:langID="1049"><v:paragraph v:horizAlign="1"/><v:tabList/>1</text>		</g>
		<g id="shape48-135" v:mID="48" v:groupContext="shape" v:layerMember="0" transform="translate(282.249,-684.919)">
			<title>Динамическая соединительная линия.48</title>
			<desc>1</desc>
			<v:textBlock v:margins="rect(4,4,4,4)" v:tabSpace="42.5197"/>
			<v:textRect cx="-3.90511" cy="976.751" width="75.01" height="26.0035"/>
			<path d="M2.61 841.89 L11.56 841.89 L11.56 992.73" class="st4"/>
			<rect v:rectContext="textBkgnd" x="-7.7062" y="967.751" width="7.60254" height="18" class="st5"/>
			<text x="-7.71" y="981.25" class="st2" v:langID="1049"><v:paragraph v:horizAlign="1"/><v:tabList/>1</text>		</g>
		<g id="shape49-140" v:mID="49" v:groupContext="shape" v:layerMember="0" transform="translate(457.235,-806.049)">
			<title>Динамическая соединительная линия.49</title>
			<desc>1</desc>
			<v:textBlock v:margins="rect(4,4,4,4)" v:tabSpace="42.5197"/>
			<v:textRect cx="-14.1732" cy="850.54" width="75.01" height="26.0035"/>
			<path d="M0 841.89 L-5.31 841.89 L-5.31 963.02 L-15.67 963.02" class="st4"/>
			<rect v:rectContext="textBkgnd" x="-17.9743" y="841.54" width="7.60254" height="18" class="st5"/>
			<text x="-17.97" y="855.04" class="st2" v:langID="1049"><v:paragraph v:horizAlign="1"/><v:tabList/>1</text>		</g>
		<g id="shape51-145" v:mID="51" v:groupContext="shape" v:layerMember="0" transform="translate(333.92,-684.919)">
			<title>Динамическая соединительная линия.51</title>
			<desc>1</desc>
			<v:textBlock v:margins="rect(4,4,4,4)" v:tabSpace="42.5197"/>
			<v:textRect cx="1.23975" cy="976.753" width="75.01" height="26.0035"/>
			<path d="M-2.05 841.89 L-12.12 841.89 L-12.12 992.73" class="st4"/>
			<rect v:rectContext="textBkgnd" x="-2.56134" y="967.754" width="7.60254" height="18" class="st5"/>
			<text x="-2.56" y="981.25" class="st2" v:langID="1049"><v:paragraph v:horizAlign="1"/><v:tabList/>1</text>		</g>
		<g id="shape54-150" v:mID="54" v:groupContext="shape" v:layerMember="0" transform="translate(104.646,-246.109)">
			<title>Динамическая соединительная линия.54</title>
			<desc>1</desc>
			<v:textBlock v:margins="rect(4,4,4,4)" v:tabSpace="42.5197"/>
			<v:textRect cx="17.0079" cy="826.127" width="75.01" height="26.0035"/>
			<path d="M0 841.89 L0 699.39 L-65.48 699.39 L-65.48 657.91 L-54.85 657.91" class="st4"/>
			<rect v:rectContext="textBkgnd" x="13.2068" y="817.127" width="7.60254" height="18" class="st5"/>
			<text x="13.21" y="830.63" class="st2" v:langID="1049"><v:paragraph v:horizAlign="1"/><v:tabList/>1</text>		</g>
		<g id="shape55-155" v:mID="55" v:groupContext="shape" v:layerMember="0" transform="translate(190.834,-430.089)">
			<title>Динамическая соединительная линия.55</title>
			<desc>М</desc>
			<v:textBlock v:margins="rect(4,4,4,4)" v:tabSpace="42.5197"/>
			<v:textRect cx="42.064" cy="739.726" width="75.01" height="26.0035"/>
			<path d="M0 841.89 L11.77 841.89 L11.77 753.9 L56.14 753.9" class="st6"/>
			<rect v:rectContext="textBkgnd" x="35.6518" y="730.726" width="12.8246" height="18" class="st5"/>
			<text x="35.65" y="744.23" class="st2" v:langID="1049"><v:paragraph v:horizAlign="1"/><v:tabList/>М</text>		</g>
		<g id="shape56-163" v:mID="56" v:groupContext="shape" transform="translate(49.7989,-574.074)">
			<title>Эллипс.56</title>
			<desc>Телефон</desc>
			<v:userDefs>
				<v:ud v:nameU="visVersion" v:val="VT0(15):26"/>
				<v:ud v:nameU="visMasterStencil" v:prompt="" v:val="VT4(Basic_M.vssx)"/>
			</v:userDefs>
			<v:textBlock v:margins="rect(4,4,4,4)" v:tabSpace="42.5197"/>
			<v:textRect cx="54.8471" cy="825.891" width="95.99" height="27.997"/>
			<path d="M0 825.89 A54.8471 15.9983 0 0 1 109.69 825.89 A54.8471 15.9983 0 0 1 0 825.89 Z" class="st1"/>
			<text x="27.26" y="830.39" class="st2" v:langID="1049"><v:paragraph v:horizAlign="1"/><v:tabList/>Телефон</text>		</g>
		<g id="shape57-166" v:mID="57" v:groupContext="shape" v:layerMember="0" transform="translate(457.235,-230.111)">
			<title>Динамическая соединительная линия.57</title>
			<desc>1</desc>
			<v:textBlock v:margins="rect(4,4,4,4)" v:tabSpace="42.5197"/>
			<v:textRect cx="-21.1649" cy="843.13" width="75.01" height="26.0035"/>
			<path d="M0 841.89 L-10.63 841.89 L-10.63 915.02 L-78.35 915.02" class="st4"/>
			<rect v:rectContext="textBkgnd" x="-24.966" y="834.13" width="7.60254" height="18" class="st5"/>
			<text x="-24.97" y="847.63" class="st2" v:langID="1049"><v:paragraph v:horizAlign="1"/><v:tabList/>1</text>		</g>
		<g id="shape58-171" v:mID="58" v:groupContext="shape" v:layerMember="0" transform="translate(253.517,-156.976)">
			<title>Динамическая соединительная линия.58</title>
			<desc>1</desc>
			<v:textBlock v:margins="rect(4,4,4,4)" v:tabSpace="42.5197"/>
			<v:textRect cx="-78.2114" cy="754.582" width="75.01" height="26.0035"/>
			<path d="M0 841.89 L-55.09 841.89 L-55.09 768.75 L-94.02 768.75" class="st4"/>
			<rect v:rectContext="textBkgnd" x="-82.0125" y="745.582" width="7.60254" height="18" class="st5"/>
			<text x="-82.01" y="759.08" class="st2" v:langID="1049"><v:paragraph v:horizAlign="1"/><v:tabList/>1</text>		</g>
	</g>
</svg>
