<?xml version="1.0" encoding="UTF-8" standalone="no"?>
<!DOCTYPE svg PUBLIC "-//W3C//DTD SVG 1.1//EN" "http://www.w3.org/Graphics/SVG/1.1/DTD/svg11.dtd">
<!-- Создано Microsoft Visio, экспорт SVG ЕПЦ.svg Page-1 -->
<svg xmlns="http://www.w3.org/2000/svg" xmlns:xlink="http://www.w3.org/1999/xlink" xmlns:ev="http://www.w3.org/2001/xml-events"
		xmlns:v="http://schemas.microsoft.com/visio/2003/SVGExtensions/" width="8.26772in" height="11.6929in"
		viewBox="0 0 595.276 841.89" xml:space="preserve" color-interpolation-filters="sRGB" class="st14">
	<v:documentProperties v:langID="1049" v:metric="true" v:viewMarkup="false">
		<v:userDefs>
			<v:ud v:nameU="msvNoAutoConnect" v:val="VT0(1):26"/>
		</v:userDefs>
	</v:documentProperties>

	<style type="text/css">
	<![CDATA[
		.st1 {fill:#ff8080;stroke:#000000;stroke-linecap:round;stroke-linejoin:round;stroke-width:2}
		.st2 {fill:#000000;fill-opacity:1;stroke:#000000;stroke-opacity:1;stroke-width:0.38167938931298}
		.st3 {fill:#000000;font-family:Calibri;font-size:1.08334em}
		.st4 {font-size:1em}
		.st5 {fill:#80ff80;marker-end:url(#mrkr2-4);stroke:#000000;stroke-linecap:round;stroke-linejoin:round;stroke-width:2}
		.st6 {fill:#e6e6e6;marker-end:url(#mrkr2-4);stroke:#000000;stroke-linecap:round;stroke-linejoin:round;stroke-width:2}
		.st7 {fill:#80ff80;stroke:#000000;stroke-linecap:round;stroke-linejoin:round;stroke-width:2}
		.st8 {fill:#e6e6e6;stroke:#000000;stroke-linecap:round;stroke-linejoin:round;stroke-width:2}
		.st9 {fill:#ffff80}
		.st10 {stroke:#000000;stroke-linecap:round;stroke-linejoin:round;stroke-width:2}
		.st11 {marker-end:url(#mrkr2-4);stroke:#000000;stroke-linecap:round;stroke-linejoin:round;stroke-width:2}
		.st12 {fill:none;stroke:none;stroke-linecap:round;stroke-linejoin:round;stroke-width:2}
		.st13 {marker-end:url(#mrkr4-189);stroke:#000000;stroke-linecap:round;stroke-linejoin:round;stroke-width:2}
		.st14 {fill:none;fill-rule:evenodd;font-size:12px;overflow:visible;stroke-linecap:square;stroke-miterlimit:3}
	]]>
	</style>

	<defs id="Markers">
		<g id="lend2">
			<path d="M 1 1 L 0 0 L 1 -1 L 1 1 " style="stroke:none"/>
		</g>
		<marker id="mrkr2-4" class="st2" v:arrowType="2" v:arrowSize="3" v:setback="2.62" refX="-2.62" orient="auto"
				markerUnits="strokeWidth" overflow="visible">
			<use xlink:href="#lend2" transform="scale(-2.62,-2.62) "/>
		</marker>
		<g id="lend4">
			<path d="M 2 1 L 0 0 L 2 -1 L 2 1 " style="stroke:none"/>
		</g>
		<marker id="mrkr4-189" class="st2" v:arrowType="4" v:arrowSize="3" v:setback="5.24" refX="-5.24" orient="auto"
				markerUnits="strokeWidth" overflow="visible">
			<use xlink:href="#lend4" transform="scale(-2.62,-2.62) "/>
		</marker>
	</defs>
	<g v:mID="0" v:index="1" v:groupContext="foregroundPage">
		<title>Страница-1</title>
		<v:pageProperties v:drawingScale="0.0393701" v:pageScale="0.0393701" v:drawingUnits="24" v:shadowOffsetX="8.50394"
				v:shadowOffsetY="-8.50394"/>
		<v:layer v:name="Блок-схема" v:index="0"/>
		<v:layer v:name="Соединительная линия" v:index="1"/>
		<g id="shape1-1" v:mID="1" v:groupContext="shape" v:layerMember="0" transform="translate(219.889,-732.599)">
			<title>Событие</title>
			<desc>Поступление заказа</desc>
			<v:userDefs>
				<v:ud v:nameU="visVersion" v:prompt="" v:val="VT0(15):26"/>
			</v:userDefs>
			<v:textBlock v:margins="rect(2,2,2,2)" v:tabSpace="42.5197"/>
			<v:textRect cx="50.8573" cy="807.561" width="101.72" height="68.6574"/>
			<path d="M10.6 841.89 L91.12 841.89 L101.71 808.42 L91.12 773.23 L10.6 773.23 L0 808.42 L10.6 841.89 Z" class="st1"/>
			<text x="15.02" y="803.66" class="st3" v:langID="1049"><v:paragraph v:horizAlign="1"/><v:tabList/>Поступление <tspan
						x="33" dy="1.2em" class="st4">заказа</tspan></text>		</g>
		<g id="shape3-7" v:mID="3" v:groupContext="shape" v:layerMember="0" transform="translate(219.889,-611.515)">
			<title>Функция</title>
			<desc>Обработка заказа</desc>
			<v:userDefs>
				<v:ud v:nameU="visVersion" v:prompt="" v:val="VT0(15):26"/>
			</v:userDefs>
			<v:textBlock v:margins="rect(2,2,2,2)" v:tabSpace="42.5197"/>
			<v:textRect cx="50.8573" cy="807.561" width="101.72" height="68.6574"/>
			<rect x="0" y="773.232" width="101.715" height="68.6574" rx="12.7143" ry="12.7143" class="st5"/>
			<text x="21.03" y="803.66" class="st3" v:langID="1049"><v:paragraph v:horizAlign="1"/><v:tabList/>Обработка <tspan
						x="33" dy="1.2em" class="st4">заказа</tspan></text>		</g>
		<g id="shape4-12" v:mID="4" v:groupContext="shape" v:layerMember="0" transform="translate(114.776,-490.432)">
			<title>Событие.4</title>
			<desc>Утверждение заказа</desc>
			<v:userDefs>
				<v:ud v:nameU="visVersion" v:prompt="" v:val="VT0(15):26"/>
			</v:userDefs>
			<v:textBlock v:margins="rect(2,2,2,2)" v:tabSpace="42.5197"/>
			<v:textRect cx="50.8573" cy="807.561" width="101.72" height="68.6574"/>
			<path d="M10.6 841.89 L91.12 841.89 L101.71 808.42 L91.12 773.23 L10.6 773.23 L0 808.42 L10.6 841.89 Z" class="st1"/>
			<text x="13.59" y="803.66" class="st3" v:langID="1049"><v:paragraph v:horizAlign="1"/><v:tabList/>Утверждение <tspan
						x="33" dy="1.2em" class="st4">заказа</tspan></text>		</g>
		<g id="shape5-16" v:mID="5" v:groupContext="shape" v:layerMember="0" transform="translate(245.318,-499.332)">
			<title>Исключающее ИЛИ</title>
			<desc>XOR</desc>
			<v:userDefs>
				<v:ud v:nameU="visVersion" v:prompt="" v:val="VT0(15):26"/>
			</v:userDefs>
			<v:textBlock v:margins="rect(2,2,2,2)" v:tabSpace="42.5197"/>
			<v:textRect cx="25.4287" cy="816.461" width="50.86" height="50.8573"/>
			<ellipse cx="25.4287" cy="816.461" rx="25.4287" ry="25.4287" class="st6"/>
			<text x="14.22" y="820.36" class="st3" v:langID="1049"><v:paragraph v:horizAlign="1"/><v:tabList/>XOR</text>		</g>
		<g id="shape6-20" v:mID="6" v:groupContext="shape" v:layerMember="0" transform="translate(13.2102,-271.972)">
			<title>Событие.6</title>
			<desc>Редактирование заказа</desc>
			<v:userDefs>
				<v:ud v:nameU="visVersion" v:prompt="" v:val="VT0(15):26"/>
			</v:userDefs>
			<v:textBlock v:margins="rect(2,2,2,2)" v:tabSpace="42.5197"/>
			<v:textRect cx="50.8573" cy="807.561" width="101.72" height="68.6574"/>
			<path d="M10.6 841.89 L91.12 841.89 L101.71 808.42 L91.12 773.23 L10.6 773.23 L0 808.42 L10.6 841.89 Z" class="st1"/>
			<text x="5.19" y="803.66" class="st3" v:langID="1049"><v:paragraph v:horizAlign="1"/><v:tabList/>Редактирование <tspan
						x="33" dy="1.2em" class="st4">заказа</tspan></text>		</g>
		<g id="shape8-24" v:mID="8" v:groupContext="shape" v:layerMember="0" transform="translate(104.676,-372.822)">
			<title>Функция.8</title>
			<desc>Дополнительная информация</desc>
			<v:userDefs>
				<v:ud v:nameU="visVersion" v:prompt="" v:val="VT0(15):26"/>
			</v:userDefs>
			<v:textBlock v:margins="rect(2,2,2,2)" v:tabSpace="42.5197"/>
			<v:textRect cx="56.161" cy="803.981" width="112.33" height="75.8174"/>
			<rect x="0" y="766.072" width="112.322" height="75.8174" rx="14.0403" ry="14.0403" class="st7"/>
			<text x="9.64" y="800.08" class="st3" v:langID="1049"><v:paragraph v:horizAlign="1"/><v:tabList/>Дополнительная <tspan
						x="20.65" dy="1.2em" class="st4">информация</tspan></text>		</g>
		<g id="shape9-28" v:mID="9" v:groupContext="shape" v:layerMember="0" transform="translate(216.342,-271.972)">
			<title>Событие.9</title>
			<desc>Заказа принят</desc>
			<v:userDefs>
				<v:ud v:nameU="visVersion" v:prompt="" v:val="VT0(15):26"/>
			</v:userDefs>
			<v:textBlock v:margins="rect(2,2,2,2)" v:tabSpace="42.5197"/>
			<v:textRect cx="50.8573" cy="807.561" width="101.72" height="68.6574"/>
			<path d="M10.6 841.89 L91.12 841.89 L101.71 808.42 L91.12 773.23 L10.6 773.23 L0 808.42 L10.6 841.89 Z" class="st1"/>
			<text x="11.82" y="811.46" class="st3" v:langID="1049"><v:paragraph v:horizAlign="1"/><v:tabList/>Заказа принят</text>		</g>
		<g id="shape10-31" v:mID="10" v:groupContext="shape" v:layerMember="0" transform="translate(216.342,-156.962)">
			<title>Функция.10</title>
			<desc>Внос заказа в базу данных</desc>
			<v:userDefs>
				<v:ud v:nameU="visVersion" v:prompt="" v:val="VT0(15):26"/>
			</v:userDefs>
			<v:textBlock v:margins="rect(2,2,2,2)" v:tabSpace="42.5197"/>
			<v:textRect cx="50.8573" cy="807.561" width="101.72" height="68.6574"/>
			<rect x="0" y="773.232" width="101.715" height="68.6574" rx="12.7143" ry="12.7143" class="st7"/>
			<text x="13.76" y="803.66" class="st3" v:langID="1049"><v:paragraph v:horizAlign="1"/><v:tabList/>Внос заказа в <tspan
						x="16.28" dy="1.2em" class="st4">базу данных</tspan></text>		</g>
		<g id="shape11-35" v:mID="11" v:groupContext="shape" v:layerMember="0" transform="translate(338.142,-490.432)">
			<title>Событие.11</title>
			<desc>Отказ заказа</desc>
			<v:userDefs>
				<v:ud v:nameU="visVersion" v:prompt="" v:val="VT0(15):26"/>
			</v:userDefs>
			<v:textBlock v:margins="rect(2,2,2,2)" v:tabSpace="42.5197"/>
			<v:textRect cx="50.8573" cy="807.561" width="101.72" height="68.6574"/>
			<path d="M10.6 841.89 L91.12 841.89 L101.71 808.42 L91.12 773.23 L10.6 773.23 L0 808.42 L10.6 841.89 Z" class="st1"/>
			<text x="15.84" y="811.46" class="st3" v:langID="1049"><v:paragraph v:horizAlign="1"/><v:tabList/>Отказ заказа</text>		</g>
		<g id="shape12-39" v:mID="12" v:groupContext="shape" v:layerMember="0" transform="translate(479.388,-490.432)">
			<title>Функция.12</title>
			<desc>Заказ отклонён</desc>
			<v:userDefs>
				<v:ud v:nameU="visVersion" v:prompt="" v:val="VT0(15):26"/>
			</v:userDefs>
			<v:textBlock v:margins="rect(2,2,2,2)" v:tabSpace="42.5197"/>
			<v:textRect cx="50.8573" cy="807.561" width="101.72" height="68.6574"/>
			<rect x="0" y="773.232" width="101.715" height="68.6574" rx="12.7143" ry="12.7143" class="st5"/>
			<text x="8.43" y="811.46" class="st3" v:langID="1049"><v:paragraph v:horizAlign="1"/><v:tabList/>Заказ отклонён</text>		</g>
		<g id="shape13-43" v:mID="13" v:groupContext="shape" v:layerMember="0" transform="translate(140.205,-280.872)">
			<title>Исключающее ИЛИ.13</title>
			<desc>XOR</desc>
			<v:userDefs>
				<v:ud v:nameU="visVersion" v:prompt="" v:val="VT0(15):26"/>
			</v:userDefs>
			<v:textBlock v:margins="rect(2,2,2,2)" v:tabSpace="42.5197"/>
			<v:textRect cx="25.4287" cy="816.461" width="50.86" height="50.8573"/>
			<ellipse cx="25.4287" cy="816.461" rx="25.4287" ry="25.4287" class="st8"/>
			<text x="14.22" y="820.36" class="st3" v:langID="1049"><v:paragraph v:horizAlign="1"/><v:tabList/>XOR</text>		</g>
		<g id="shape14-46" v:mID="14" v:groupContext="shape" v:layerMember="0" transform="translate(13.2102,-156.962)">
			<title>Функция.14</title>
			<desc>Заказ отредактирован</desc>
			<v:userDefs>
				<v:ud v:nameU="visVersion" v:prompt="" v:val="VT0(15):26"/>
			</v:userDefs>
			<v:textBlock v:margins="rect(2,2,2,2)" v:tabSpace="42.5197"/>
			<v:textRect cx="50.8573" cy="807.561" width="101.72" height="68.6574"/>
			<rect x="0" y="773.232" width="101.715" height="68.6574" rx="12.7143" ry="12.7143" class="st7"/>
			<text x="35.79" y="803.66" class="st3" v:langID="1049"><v:paragraph v:horizAlign="1"/><v:tabList/>Заказ <tspan x="5.93"
						dy="1.2em" class="st4">отредактирован</tspan></text>		</g>
		<g id="shape15-50" v:mID="15" v:groupContext="shape" v:layerMember="0" transform="translate(407.331,-373.039)">
			<title>Подразделение</title>
			<desc>Менеджер</desc>
			<v:userDefs>
				<v:ud v:nameU="visVersion" v:prompt="" v:val="VT0(15):26"/>
			</v:userDefs>
			<v:textBlock v:margins="rect(2,2,2,2)" v:tabSpace="42.5197"/>
			<v:textRect cx="57.2145" cy="816.461" width="89.01" height="50.8573"/>
			<path d="M101.71 816.46 A50.8573 25.4287 -180 1 0 -0 816.46 A50.8573 25.4287 -180 1 0 101.71 816.46 Z" class="st9"/>
			<path d="M101.71 816.46 A50.8573 25.4287 -180 1 0 -0 816.46 A50.8573 25.4287 -180 1 0 101.71 816.46" class="st10"/>
			<path d="M12.72 799.81 L12.72 833.15" class="st10"/>
			<text x="26.96" y="820.36" class="st3" v:langID="1049"><v:paragraph v:horizAlign="1"/><v:tabList/>Менеджер</text>		</g>
		<g id="shape17-55" v:mID="17" v:groupContext="shape" v:layerMember="0" transform="translate(242.883,-387.849)">
			<title>Подразделение.17</title>
			<desc>Клиент</desc>
			<v:userDefs>
				<v:ud v:nameU="visVersion" v:prompt="" v:val="VT0(15):26"/>
			</v:userDefs>
			<v:textBlock v:margins="rect(2,2,2,2)" v:tabSpace="42.5197"/>
			<v:textRect cx="57.2145" cy="816.461" width="89.01" height="50.8573"/>
			<path d="M101.71 816.46 A50.8573 25.4287 -180 1 0 -0 816.46 A50.8573 25.4287 -180 1 0 101.71 816.46 Z" class="st9"/>
			<path d="M101.71 816.46 A50.8573 25.4287 -180 1 0 -0 816.46 A50.8573 25.4287 -180 1 0 101.71 816.46" class="st10"/>
			<path d="M12.72 799.81 L12.72 833.15" class="st10"/>
			<text x="37.63" y="820.36" class="st3" v:langID="1049"><v:paragraph v:horizAlign="1"/><v:tabList/>Клиент</text>		</g>
		<g id="shape20-60" v:mID="20" v:groupContext="shape" v:layerMember="1" transform="translate(242.884,-419.091)">
			<title>Динамическая соединительная линия.20</title>
			<path d="M0 847.7 L-12.58 847.7 L-12.58 850.25 L-25.89 850.25" class="st10"/>
		</g>
		<g id="shape23-63" v:mID="23" v:groupContext="shape" v:layerMember="1" transform="translate(263.66,-732.599)">
			<title>Динамическая соединительная линия.23</title>
			<path d="M7.09 841.89 L7.09 889.08" class="st11"/>
		</g>
		<g id="shape24-68" v:mID="24" v:groupContext="shape" v:layerMember="1" transform="translate(263.66,-611.515)">
			<title>Динамическая соединительная линия.24</title>
			<path d="M7.09 841.89 L7.09 897.98" class="st11"/>
		</g>
		<g id="shape25-73" v:mID="25" v:groupContext="shape" v:layerMember="1" transform="translate(245.318,-517.674)">
			<title>Динамическая соединительная линия.25</title>
			<path d="M0 834.8 L-23.59 834.8" class="st11"/>
		</g>
		<g id="shape26-78" v:mID="26" v:groupContext="shape" v:layerMember="1" transform="translate(296.175,-517.674)">
			<title>Динамическая соединительная линия.26</title>
			<path d="M0 834.8 L36.73 834.8" class="st11"/>
		</g>
		<g id="shape27-83" v:mID="27" v:groupContext="shape" v:layerMember="1" transform="translate(439.856,-517.674)">
			<title>Динамическая соединительная линия.27</title>
			<path d="M0 834.8 L34.29 834.8" class="st11"/>
		</g>
		<g id="shape28-88" v:mID="28" v:groupContext="shape" v:layerMember="1" transform="translate(170.322,-490.432)">
			<title>Динамическая соединительная линия.28</title>
			<path d="M-4.69 841.89 L-4.69 860.75 L-9.48 860.75 L-9.48 878.44" class="st11"/>
		</g>
		<g id="shape29-93" v:mID="29" v:groupContext="shape" v:layerMember="1" transform="translate(156.149,-372.822)">
			<title>Динамическая соединительная линия.29</title>
			<path d="M4.69 841.89 L4.69 860.75 L9.48 860.75 L9.48 877.74" class="st11"/>
		</g>
		<g id="shape30-98" v:mID="30" v:groupContext="shape" v:layerMember="1" transform="translate(140.205,-299.214)">
			<title>Динамическая соединительная линия.30</title>
			<path d="M0 834.8 L-20.04 834.8" class="st11"/>
		</g>
		<g id="shape31-103" v:mID="31" v:groupContext="shape" v:layerMember="1" transform="translate(191.062,-299.214)">
			<title>Динамическая соединительная линия.31</title>
			<path d="M0 834.8 L20.04 834.8" class="st11"/>
		</g>
		<g id="shape32-108" v:mID="32" v:groupContext="shape" v:layerMember="1" transform="translate(260.112,-271.972)">
			<title>Динамическая соединительная линия.32</title>
			<path d="M7.09 841.89 L7.09 883" class="st11"/>
		</g>
		<g id="shape33-113" v:mID="33" v:groupContext="shape" v:layerMember="1" transform="translate(56.9809,-271.972)">
			<title>Динамическая соединительная линия.33</title>
			<path d="M7.09 841.89 L7.09 883" class="st11"/>
		</g>
		<g id="shape34-118" v:mID="34" v:groupContext="shape" v:layerMember="0" transform="translate(338.142,-611.515)">
			<title>Событие.34</title>
			<desc>Изменение заказа</desc>
			<v:userDefs>
				<v:ud v:nameU="visVersion" v:prompt="" v:val="VT0(15):26"/>
			</v:userDefs>
			<v:textBlock v:margins="rect(2,2,2,2)" v:tabSpace="42.5197"/>
			<v:textRect cx="50.8573" cy="807.561" width="101.72" height="68.6574"/>
			<path d="M10.6 841.89 L91.12 841.89 L101.71 808.42 L91.12 773.23 L10.6 773.23 L0 808.42 L10.6 841.89 Z" class="st1"/>
			<text x="19.38" y="803.66" class="st3" v:langID="1049"><v:paragraph v:horizAlign="1"/><v:tabList/>Изменение <tspan
						x="33" dy="1.2em" class="st4">заказа</tspan></text>		</g>
		<g id="shape35-123" v:mID="35" v:groupContext="shape" v:layerMember="0" transform="translate(479.388,-732.599)">
			<title>Событие.35</title>
			<desc>Отмена заказа</desc>
			<v:userDefs>
				<v:ud v:nameU="visVersion" v:prompt="" v:val="VT0(15):26"/>
			</v:userDefs>
			<v:textBlock v:margins="rect(2,2,2,2)" v:tabSpace="42.5197"/>
			<v:textRect cx="50.8573" cy="807.561" width="101.72" height="68.6574"/>
			<path d="M10.6 841.89 L91.12 841.89 L101.71 808.42 L91.12 773.23 L10.6 773.23 L0 808.42 L10.6 841.89 Z" class="st1"/>
			<text x="10.5" y="811.46" class="st3" v:langID="1049"><v:paragraph v:horizAlign="1"/><v:tabList/>Отмена заказа</text>		</g>
		<g id="shape36-127" v:mID="36" v:groupContext="shape" v:layerMember="0" transform="translate(338.142,-732.599)">
			<title>Функция.36</title>
			<desc>Заказ отменён</desc>
			<v:userDefs>
				<v:ud v:nameU="visVersion" v:prompt="" v:val="VT0(15):26"/>
			</v:userDefs>
			<v:textBlock v:margins="rect(2,2,2,2)" v:tabSpace="42.5197"/>
			<v:textRect cx="50.8573" cy="807.561" width="101.72" height="68.6574"/>
			<rect x="0" y="773.232" width="101.715" height="68.6574" rx="12.7143" ry="12.7143" class="st5"/>
			<text x="10.56" y="811.46" class="st3" v:langID="1049"><v:paragraph v:horizAlign="1"/><v:tabList/>Заказ отменён</text>		</g>
		<g id="shape38-131" v:mID="38" v:groupContext="shape" v:layerMember="0" transform="translate(504.816,-620.415)">
			<title>Исключающее ИЛИ.38</title>
			<desc>XOR</desc>
			<v:userDefs>
				<v:ud v:nameU="visVersion" v:prompt="" v:val="VT0(15):26"/>
			</v:userDefs>
			<v:textBlock v:margins="rect(2,2,2,2)" v:tabSpace="42.5197"/>
			<v:textRect cx="25.4287" cy="816.461" width="50.86" height="50.8573"/>
			<ellipse cx="25.4287" cy="816.461" rx="25.4287" ry="25.4287" class="st6"/>
			<text x="14.22" y="820.36" class="st3" v:langID="1049"><v:paragraph v:horizAlign="1"/><v:tabList/>XOR</text>		</g>
		<g id="shape39-135" v:mID="39" v:groupContext="shape" v:layerMember="1" transform="translate(523.158,-559.089)">
			<title>Динамическая соединительная линия</title>
			<path d="M7.09 841.89 L7.09 785.8" class="st11"/>
		</g>
		<g id="shape40-140" v:mID="40" v:groupContext="shape" v:layerMember="1" transform="translate(504.816,-638.758)">
			<title>Динамическая соединительная линия.40</title>
			<path d="M0 834.8 L-59.72 834.8" class="st11"/>
		</g>
		<g id="shape41-145" v:mID="41" v:groupContext="shape" v:layerMember="1" transform="translate(523.158,-671.273)">
			<title>Динамическая соединительная линия.41</title>
			<path d="M7.09 841.89 L7.09 785.8" class="st11"/>
		</g>
		<g id="shape42-150" v:mID="42" v:groupContext="shape" v:layerMember="1" transform="translate(479.388,-759.841)">
			<title>Динамическая соединительная линия.42</title>
			<path d="M0 834.8 L-34.29 834.8" class="st11"/>
		</g>
		<g id="shape43-155" v:mID="43" v:groupContext="shape" v:layerMember="1" transform="translate(338.142,-638.758)">
			<title>Динамическая соединительная линия.43</title>
			<path d="M0 834.8 L-11.3 834.8" class="st11"/>
		</g>
		<g id="shape44-160" v:mID="44" v:groupContext="shape" v:layerMember="1" transform="translate(458.188,-423.895)">
			<title>Динамическая соединительная линия.44</title>
			<path d="M0 841.89 L0 829.31 L72.06 829.31 L72.06 775.35" class="st10"/>
		</g>
		<g id="shape45-163" v:mID="45" v:groupContext="shape" v:layerMember="0" transform="translate(78.6229,-741.499)">
			<title>Подразделение.45</title>
			<desc>Менеджер</desc>
			<v:userDefs>
				<v:ud v:nameU="visVersion" v:prompt="" v:val="VT0(15):26"/>
			</v:userDefs>
			<v:textBlock v:margins="rect(2,2,2,2)" v:tabSpace="42.5197"/>
			<v:textRect cx="57.2145" cy="816.461" width="89.01" height="50.8573"/>
			<path d="M101.71 816.46 A50.8573 25.4287 -180 1 0 -0 816.46 A50.8573 25.4287 -180 1 0 101.71 816.46 Z" class="st9"/>
			<path d="M101.71 816.46 A50.8573 25.4287 -180 1 0 -0 816.46 A50.8573 25.4287 -180 1 0 101.71 816.46" class="st10"/>
			<path d="M12.72 799.81 L12.72 833.15" class="st10"/>
			<text x="26.96" y="820.36" class="st3" v:langID="1049"><v:paragraph v:horizAlign="1"/><v:tabList/>Менеджер</text>		</g>
		<g id="shape46-168" v:mID="46" v:groupContext="shape" v:layerMember="1" transform="translate(129.48,-789.719)">
			<title>Динамическая соединительная линия.46</title>
			<path d="M0 839.25 L0 817.78 L259.52 817.78 L259.52 830.35" class="st10"/>
		</g>
		<g id="shape47-171" v:mID="47" v:groupContext="shape" v:layerMember="1" transform="translate(129.48,-741.499)">
			<title>Динамическая соединительная линия.47</title>
			<path d="M0 841.89 L0 937.54 L90.41 937.54" class="st10"/>
		</g>
		<g id="shape48-174" v:mID="48" v:groupContext="shape" transform="translate(122.837,-778.571)">
			<title>Лист.48</title>
			<desc>Начало</desc>
			<v:textBlock v:margins="rect(4,4,4,4)" v:tabSpace="42.5197"/>
			<v:textRect cx="77.2769" cy="830.831" width="154.56" height="22.1181"/>
			<rect x="0" y="819.772" width="154.554" height="22.1181" class="st12"/>
			<text x="57.21" y="834.73" class="st3" v:langID="1049"><v:paragraph v:horizAlign="1"/><v:tabList/>Начало</text>		</g>
		<g id="shape49-177" v:mID="49" v:groupContext="shape" v:layerMember="0" transform="translate(13.2102,-41.9525)">
			<title>Событие.49</title>
			<desc>Заказ принят</desc>
			<v:userDefs>
				<v:ud v:nameU="visVersion" v:prompt="" v:val="VT0(15):26"/>
			</v:userDefs>
			<v:textBlock v:margins="rect(2,2,2,2)" v:tabSpace="42.5197"/>
			<v:textRect cx="50.8573" cy="807.561" width="101.72" height="68.6574"/>
			<path d="M10.6 841.89 L91.12 841.89 L101.71 808.42 L91.12 773.23 L10.6 773.23 L0 808.42 L10.6 841.89 Z" class="st1"/>
			<text x="14.93" y="811.46" class="st3" v:langID="1049"><v:paragraph v:horizAlign="1"/><v:tabList/>Заказ принят</text>		</g>
		<g id="shape50-180" v:mID="50" v:groupContext="shape" v:layerMember="0" transform="translate(216.342,-41.9525)">
			<title>Функция.50</title>
			<desc>Внос заказа в базу данных</desc>
			<v:userDefs>
				<v:ud v:nameU="visVersion" v:prompt="" v:val="VT0(15):26"/>
			</v:userDefs>
			<v:textBlock v:margins="rect(2,2,2,2)" v:tabSpace="42.5197"/>
			<v:textRect cx="50.8573" cy="807.561" width="101.72" height="68.6574"/>
			<rect x="0" y="773.232" width="101.715" height="68.6574" rx="12.7143" ry="12.7143" class="st7"/>
			<text x="13.76" y="803.66" class="st3" v:langID="1049"><v:paragraph v:horizAlign="1"/><v:tabList/>Внос заказа в <tspan
						x="16.28" dy="1.2em" class="st4">базу данных</tspan></text>		</g>
		<g id="shape51-184" v:mID="51" v:groupContext="shape" v:layerMember="1" transform="translate(56.9809,-156.962)">
			<title>Динамическая соединительная линия.51</title>
			<path d="M7.09 841.89 L7.09 877.76" class="st13"/>
		</g>
		<g id="shape52-190" v:mID="52" v:groupContext="shape" v:layerMember="1" transform="translate(114.925,-69.1946)">
			<title>Динамическая соединительная линия.52</title>
			<path d="M0 834.8 L90.94 834.8" class="st13"/>
		</g>
		<g id="shape53-195" v:mID="53" v:groupContext="shape" v:layerMember="0" transform="translate(355.192,-108.847)">
			<title>Подразделение.53</title>
			<desc>Менеджер</desc>
			<v:userDefs>
				<v:ud v:nameU="visVersion" v:prompt="" v:val="VT0(15):26"/>
			</v:userDefs>
			<v:textBlock v:margins="rect(2,2,2,2)" v:tabSpace="42.5197"/>
			<v:textRect cx="57.2145" cy="816.461" width="89.01" height="50.8573"/>
			<path d="M101.71 816.46 A50.8573 25.4287 -180 1 0 -0 816.46 A50.8573 25.4287 -180 1 0 101.71 816.46 Z" class="st9"/>
			<path d="M101.71 816.46 A50.8573 25.4287 -180 1 0 -0 816.46 A50.8573 25.4287 -180 1 0 101.71 816.46" class="st10"/>
			<path d="M12.72 799.81 L12.72 833.15" class="st10"/>
			<text x="26.96" y="820.36" class="st3" v:langID="1049"><v:paragraph v:horizAlign="1"/><v:tabList/>Менеджер</text>		</g>
		<g id="shape54-200" v:mID="54" v:groupContext="shape" v:layerMember="1" transform="translate(267.199,-41.9525)">
			<title>Динамическая соединительная линия.54</title>
			<path d="M0 841.89 L0 854.47 L202.28 854.47 L202.28 749.57 L189.71 749.57" class="st10"/>
		</g>
		<g id="shape55-203" v:mID="55" v:groupContext="shape" v:layerMember="1" transform="translate(318.056,-191.291)">
			<title>Динамическая соединительная линия.55</title>
			<path d="M0 841.89 L12.58 841.89 L12.58 898.9 L37.14 898.9" class="st10"/>
		</g>
	</g>
</svg>
