<?xml version="1.0" encoding="UTF-8" standalone="no"?>
<!DOCTYPE svg PUBLIC "-//W3C//DTD SVG 1.1//EN" "http://www.w3.org/Graphics/SVG/1.1/DTD/svg11.dtd">
<!-- Создано Microsoft Visio, экспорт SVG ЕПЦ.svg Page-1 -->
<svg xmlns="http://www.w3.org/2000/svg" xmlns:xlink="http://www.w3.org/1999/xlink" xmlns:ev="http://www.w3.org/2001/xml-events"
		xmlns:v="http://schemas.microsoft.com/visio/2003/SVGExtensions/" width="8.26772in" height="11.6929in"
		viewBox="0 0 595.276 841.89" xml:space="preserve" color-interpolation-filters="sRGB" class="st14">
	<v:documentProperties v:langID="1049" v:metric="true" v:viewMarkup="false">
		<v:userDefs>
			<v:ud v:nameU="msvNoAutoConnect" v:val="VT0(1):26"/>
		</v:userDefs>
	</v:documentProperties>

	<style type="text/css">
	<![CDATA[
		.st1 {fill:#ff8080;stroke:#000000;stroke-linecap:round;stroke-linejoin:round;stroke-width:2}
		.st2 {fill:#000000;fill-opacity:1;stroke:#000000;stroke-opacity:1;stroke-width:0.38167938931298}
		.st3 {fill:#000000;font-family:Calibri;font-size:1.33333em}
		.st4 {font-size:1em}
		.st5 {fill:#80ff80;marker-end:url(#mrkr2-4);stroke:#000000;stroke-linecap:round;stroke-linejoin:round;stroke-width:2}
		.st6 {fill:#e6e6e6;marker-end:url(#mrkr2-4);stroke:#000000;stroke-linecap:round;stroke-linejoin:round;stroke-width:2}
		.st7 {fill:#80ff80;stroke:#000000;stroke-linecap:round;stroke-linejoin:round;stroke-width:2}
		.st8 {fill:#e6e6e6;stroke:#000000;stroke-linecap:round;stroke-linejoin:round;stroke-width:2}
		.st9 {fill:#ffff80}
		.st10 {stroke:#000000;stroke-linecap:round;stroke-linejoin:round;stroke-width:2}
		.st11 {marker-end:url(#mrkr2-4);stroke:#000000;stroke-linecap:round;stroke-linejoin:round;stroke-width:2}
		.st12 {fill:none;stroke:none;stroke-linecap:round;stroke-linejoin:round;stroke-width:2}
		.st13 {marker-end:url(#mrkr4-198);stroke:#000000;stroke-linecap:round;stroke-linejoin:round;stroke-width:2}
		.st14 {fill:none;fill-rule:evenodd;font-size:12px;overflow:visible;stroke-linecap:square;stroke-miterlimit:3}
	]]>
	</style>

	<defs id="Markers">
		<g id="lend2">
			<path d="M 1 1 L 0 0 L 1 -1 L 1 1 " style="stroke:none"/>
		</g>
		<marker id="mrkr2-4" class="st2" v:arrowType="2" v:arrowSize="3" v:setback="2.62" refX="-2.62" orient="auto"
				markerUnits="strokeWidth" overflow="visible">
			<use xlink:href="#lend2" transform="scale(-2.62,-2.62) "/>
		</marker>
		<g id="lend4">
			<path d="M 2 1 L 0 0 L 2 -1 L 2 1 " style="stroke:none"/>
		</g>
		<marker id="mrkr4-198" class="st2" v:arrowType="4" v:arrowSize="3" v:setback="5.24" refX="-5.24" orient="auto"
				markerUnits="strokeWidth" overflow="visible">
			<use xlink:href="#lend4" transform="scale(-2.62,-2.62) "/>
		</marker>
	</defs>
	<g v:mID="0" v:index="1" v:groupContext="foregroundPage">
		<title>Страница-1</title>
		<v:pageProperties v:drawingScale="0.0393701" v:pageScale="0.0393701" v:drawingUnits="24" v:shadowOffsetX="8.50394"
				v:shadowOffsetY="-8.50394"/>
		<v:layer v:name="Блок-схема" v:index="0"/>
		<v:layer v:name="Соединительная линия" v:index="1"/>
		<g id="shape1-1" v:mID="1" v:groupContext="shape" v:layerMember="0" transform="translate(221.264,-739.964)">
			<title>Событие</title>
			<desc>Поступление заказа</desc>
			<v:userDefs>
				<v:ud v:nameU="visVersion" v:prompt="" v:val="VT0(15):26"/>
			</v:userDefs>
			<v:textBlock v:margins="rect(2,2,2,2)" v:tabSpace="42.5197"/>
			<v:textRect cx="45.2272" cy="811.361" width="90.46" height="61.0567"/>
			<path d="M9.42 841.89 L81.03 841.89 L90.45 812.12 L81.03 780.83 L9.42 780.83 L0 812.12 L9.42 841.89 Z" class="st1"/>
			<text x="5.11" y="806.56" class="st3" v:langID="1049"><v:paragraph v:horizAlign="1"/><v:tabList/>Поступлени<tspan
						x="17.47" dy="1.2em" class="st4">е заказа</tspan></text>		</g>
		<g id="shape3-7" v:mID="3" v:groupContext="shape" v:layerMember="0" transform="translate(221.264,-630.476)">
			<title>Функция</title>
			<desc>Обработка заказа</desc>
			<v:userDefs>
				<v:ud v:nameU="visVersion" v:prompt="" v:val="VT0(15):26"/>
			</v:userDefs>
			<v:textBlock v:margins="rect(2,2,2,2)" v:tabSpace="42.5197"/>
			<v:textRect cx="45.2272" cy="811.361" width="90.46" height="61.0567"/>
			<rect x="0" y="780.833" width="90.4544" height="61.0567" rx="11.3068" ry="11.3068" class="st5"/>
			<text x="8.51" y="806.56" class="st3" v:langID="1049"><v:paragraph v:horizAlign="1"/><v:tabList/>Обработка <tspan
						x="23.25" dy="1.2em" class="st4">заказа</tspan></text>		</g>
		<g id="shape4-12" v:mID="4" v:groupContext="shape" v:layerMember="0" transform="translate(117.888,-520.987)">
			<title>Событие.4</title>
			<desc>Утверждение заказа</desc>
			<v:userDefs>
				<v:ud v:nameU="visVersion" v:prompt="" v:val="VT0(15):26"/>
			</v:userDefs>
			<v:textBlock v:margins="rect(2,2,2,2)" v:tabSpace="42.5197"/>
			<v:textRect cx="45.2272" cy="811.361" width="90.46" height="61.0567"/>
			<path d="M9.42 841.89 L81.03 841.89 L90.45 812.12 L81.03 780.83 L9.42 780.83 L0 812.12 L9.42 841.89 Z" class="st1"/>
			<text x="3.34" y="806.56" class="st3" v:langID="1049"><v:paragraph v:horizAlign="1"/><v:tabList/>Утверждени<tspan
						x="17.47" dy="1.2em" class="st4">е заказа</tspan></text>		</g>
		<g id="shape5-16" v:mID="5" v:groupContext="shape" v:layerMember="0" transform="translate(243.878,-528.902)">
			<title>Исключающее ИЛИ</title>
			<desc>XOR</desc>
			<v:userDefs>
				<v:ud v:nameU="visVersion" v:prompt="" v:val="VT0(15):26"/>
			</v:userDefs>
			<v:textBlock v:margins="rect(2,2,2,2)" v:tabSpace="42.5197"/>
			<v:textRect cx="22.6136" cy="819.276" width="45.23" height="45.2272"/>
			<ellipse cx="22.6136" cy="819.276" rx="22.6136" ry="22.6136" class="st6"/>
			<text x="8.82" y="824.08" class="st3" v:langID="1049"><v:paragraph v:horizAlign="1"/><v:tabList/>XOR</text>		</g>
		<g id="shape6-20" v:mID="6" v:groupContext="shape" v:layerMember="0" transform="translate(18,-323.448)">
			<title>Событие.6</title>
			<desc>Редактирование заказа</desc>
			<v:userDefs>
				<v:ud v:nameU="visVersion" v:prompt="" v:val="VT0(15):26"/>
			</v:userDefs>
			<v:textBlock v:margins="rect(2,2,2,2)" v:tabSpace="42.5197"/>
			<v:textRect cx="45.2272" cy="811.361" width="90.46" height="61.0567"/>
			<path d="M9.42 841.89 L81.03 841.89 L90.45 812.12 L81.03 780.83 L9.42 780.83 L0 812.12 L9.42 841.89 Z" class="st1"/>
			<text x="5.43" y="806.56" class="st3" v:langID="1049"><v:paragraph v:horizAlign="1"/><v:tabList/>Редактиров<tspan
						x="5.03" dy="1.2em" class="st4">ание заказа</tspan></text>		</g>
		<g id="shape8-24" v:mID="8" v:groupContext="shape" v:layerMember="0" transform="translate(108.454,-414.693)">
			<title>Функция.8</title>
			<desc>Дополнительная информация</desc>
			<v:userDefs>
				<v:ud v:nameU="visVersion" v:prompt="" v:val="VT0(15):26"/>
			</v:userDefs>
			<v:textBlock v:margins="rect(2,2,2,2)" v:tabSpace="42.5197"/>
			<v:textRect cx="49.9438" cy="808.178" width="99.89" height="67.4241"/>
			<rect x="0" y="774.466" width="99.8875" height="67.4241" rx="12.4859" ry="12.4859" class="st7"/>
			<text x="4.59" y="793.78" class="st3" v:langID="1049"><v:paragraph v:horizAlign="1"/><v:tabList/>Дополнитель<tspan
						x="38.04" dy="1.2em" class="st4">ная </tspan><tspan x="6.24" dy="1.2em" class="st4">информация</tspan></text>		</g>
		<g id="shape9-29" v:mID="9" v:groupContext="shape" v:layerMember="0" transform="translate(217.775,-323.448)">
			<title>Событие.9</title>
			<desc>Заказа принят</desc>
			<v:userDefs>
				<v:ud v:nameU="visVersion" v:prompt="" v:val="VT0(15):26"/>
			</v:userDefs>
			<v:textBlock v:margins="rect(2,2,2,2)" v:tabSpace="42.5197"/>
			<v:textRect cx="45.2272" cy="811.361" width="90.46" height="61.0567"/>
			<path d="M9.42 841.89 L81.03 841.89 L90.45 812.12 L81.03 780.83 L9.42 780.83 L0 812.12 L9.42 841.89 Z" class="st1"/>
			<text x="22.85" y="806.56" class="st3" v:langID="1049"><v:paragraph v:horizAlign="1"/><v:tabList/>Заказа <tspan
						x="21.37" dy="1.2em" class="st4">принят</tspan></text>		</g>
		<g id="shape10-33" v:mID="10" v:groupContext="shape" v:layerMember="0" transform="translate(217.775,-219.452)">
			<title>Функция.10</title>
			<desc>Внос заказа в базу данных</desc>
			<v:userDefs>
				<v:ud v:nameU="visVersion" v:prompt="" v:val="VT0(15):26"/>
			</v:userDefs>
			<v:textBlock v:margins="rect(2,2,2,2)" v:tabSpace="42.5197"/>
			<v:textRect cx="45.2272" cy="811.361" width="90.46" height="61.0567"/>
			<rect x="0" y="780.833" width="90.4544" height="61.0567" rx="11.3068" ry="11.3068" class="st7"/>
			<text x="5.22" y="796.96" class="st3" v:langID="1049"><v:paragraph v:horizAlign="1"/><v:tabList/>Внос заказа <tspan
						x="24.49" dy="1.2em" class="st4">в базу </tspan><tspan x="19.58" dy="1.2em" class="st4">данных</tspan></text>		</g>
		<g id="shape11-38" v:mID="11" v:groupContext="shape" v:layerMember="0" transform="translate(337.563,-520.987)">
			<title>Событие.11</title>
			<desc>Отказ заказа</desc>
			<v:userDefs>
				<v:ud v:nameU="visVersion" v:prompt="" v:val="VT0(15):26"/>
			</v:userDefs>
			<v:textBlock v:margins="rect(2,2,2,2)" v:tabSpace="42.5197"/>
			<v:textRect cx="45.2272" cy="811.361" width="90.46" height="61.0567"/>
			<path d="M9.42 841.89 L81.03 841.89 L90.45 812.12 L81.03 780.83 L9.42 780.83 L0 812.12 L9.42 841.89 Z" class="st1"/>
			<text x="2.13" y="816.16" class="st3" v:langID="1049"><v:paragraph v:horizAlign="1"/><v:tabList/>Отказ заказа</text>		</g>
		<g id="shape12-42" v:mID="12" v:groupContext="shape" v:layerMember="0" transform="translate(476.475,-520.987)">
			<title>Функция.12</title>
			<desc>Заказ отклонён</desc>
			<v:userDefs>
				<v:ud v:nameU="visVersion" v:prompt="" v:val="VT0(15):26"/>
			</v:userDefs>
			<v:textBlock v:margins="rect(2,2,2,2)" v:tabSpace="42.5197"/>
			<v:textRect cx="45.2272" cy="811.361" width="90.46" height="61.0567"/>
			<rect x="0" y="780.833" width="90.4544" height="61.0567" rx="11.3068" ry="11.3068" class="st5"/>
			<text x="26.68" y="806.56" class="st3" v:langID="1049"><v:paragraph v:horizAlign="1"/><v:tabList/>Заказ <tspan
						x="13.36" dy="1.2em" class="st4">отклонён</tspan></text>		</g>
		<g id="shape13-47" v:mID="13" v:groupContext="shape" v:layerMember="0" transform="translate(140.501,-331.363)">
			<title>Исключающее ИЛИ.13</title>
			<desc>XOR</desc>
			<v:userDefs>
				<v:ud v:nameU="visVersion" v:prompt="" v:val="VT0(15):26"/>
			</v:userDefs>
			<v:textBlock v:margins="rect(2,2,2,2)" v:tabSpace="42.5197"/>
			<v:textRect cx="22.6136" cy="819.276" width="45.23" height="45.2272"/>
			<ellipse cx="22.6136" cy="819.276" rx="22.6136" ry="22.6136" class="st8"/>
			<text x="8.82" y="824.08" class="st3" v:langID="1049"><v:paragraph v:horizAlign="1"/><v:tabList/>XOR</text>		</g>
		<g id="shape14-50" v:mID="14" v:groupContext="shape" v:layerMember="0" transform="translate(18,-219.452)">
			<title>Функция.14</title>
			<desc>Заказ отредактирован</desc>
			<v:userDefs>
				<v:ud v:nameU="visVersion" v:prompt="" v:val="VT0(15):26"/>
			</v:userDefs>
			<v:textBlock v:margins="rect(2,2,2,2)" v:tabSpace="42.5197"/>
			<v:textRect cx="45.2272" cy="811.361" width="90.46" height="61.0567"/>
			<rect x="0" y="780.833" width="90.4544" height="61.0567" rx="11.3068" ry="11.3068" class="st7"/>
			<text x="26.68" y="796.96" class="st3" v:langID="1049"><v:paragraph v:horizAlign="1"/><v:tabList/>Заказ <tspan x="6.09"
						dy="1.2em" class="st4">отредактир</tspan><tspan x="29.07" dy="1.2em" class="st4">ован</tspan></text>		</g>
		<g id="shape15-55" v:mID="15" v:groupContext="shape" v:layerMember="0" transform="translate(405.609,-414.703)">
			<title>Подразделение</title>
			<desc>Менеджер</desc>
			<v:userDefs>
				<v:ud v:nameU="visVersion" v:prompt="" v:val="VT0(15):26"/>
			</v:userDefs>
			<v:textBlock v:margins="rect(2,2,2,2)" v:tabSpace="42.5197"/>
			<v:textRect cx="50.8806" cy="819.276" width="79.15" height="45.2272"/>
			<path d="M90.45 819.28 A45.2272 22.6136 -180 1 0 0 819.28 A45.2272 22.6136 -180 1 0 90.45 819.28 Z" class="st9"/>
			<path d="M90.45 819.28 A45.2272 22.6136 -180 1 0 0 819.28 A45.2272 22.6136 -180 1 0 90.45 819.28" class="st10"/>
			<path d="M11.31 804.47 L11.31 834.12" class="st10"/>
			<text x="13.64" y="824.08" class="st3" v:langID="1049"><v:paragraph v:horizAlign="1"/><v:tabList/>Менеджер</text>		</g>
		<g id="shape17-60" v:mID="17" v:groupContext="shape" v:layerMember="0" transform="translate(243.878,-428.095)">
			<title>Подразделение.17</title>
			<desc>Клиент</desc>
			<v:userDefs>
				<v:ud v:nameU="visVersion" v:prompt="" v:val="VT0(15):26"/>
			</v:userDefs>
			<v:textBlock v:margins="rect(2,2,2,2)" v:tabSpace="42.5197"/>
			<v:textRect cx="50.8806" cy="819.276" width="79.15" height="45.2272"/>
			<path d="M90.45 819.28 A45.2272 22.6136 -180 1 0 0 819.28 A45.2272 22.6136 -180 1 0 90.45 819.28 Z" class="st9"/>
			<path d="M90.45 819.28 A45.2272 22.6136 -180 1 0 0 819.28 A45.2272 22.6136 -180 1 0 90.45 819.28" class="st10"/>
			<path d="M11.31 804.47 L11.31 834.12" class="st10"/>
			<text x="26.78" y="824.08" class="st3" v:langID="1049"><v:paragraph v:horizAlign="1"/><v:tabList/>Клиент</text>		</g>
		<g id="shape20-65" v:mID="20" v:groupContext="shape" v:layerMember="1" transform="translate(243.879,-456.644)">
			<title>Динамическая соединительная линия.20</title>
			<path d="M0 847.82 L-10.63 847.82 L-10.63 850.13 L-35.54 850.13" class="st10"/>
		</g>
		<g id="shape23-68" v:mID="23" v:groupContext="shape" v:layerMember="1" transform="translate(259.405,-739.964)">
			<title>Динамическая соединительная линия.23</title>
			<path d="M7.09 841.89 L7.09 885.08" class="st11"/>
		</g>
		<g id="shape24-73" v:mID="24" v:groupContext="shape" v:layerMember="1" transform="translate(259.405,-630.476)">
			<title>Динамическая соединительная линия.24</title>
			<path d="M7.09 841.89 L7.09 893" class="st11"/>
		</g>
		<g id="shape25-78" v:mID="25" v:groupContext="shape" v:layerMember="1" transform="translate(243.878,-544.429)">
			<title>Динамическая соединительная линия.25</title>
			<path d="M0 834.8 L-30.3 834.8" class="st11"/>
		</g>
		<g id="shape26-83" v:mID="26" v:groupContext="shape" v:layerMember="1" transform="translate(289.105,-544.429)">
			<title>Динамическая соединительная линия.26</title>
			<path d="M0 834.8 L43.22 834.8" class="st11"/>
		</g>
		<g id="shape27-88" v:mID="27" v:groupContext="shape" v:layerMember="1" transform="translate(428.017,-544.429)">
			<title>Динамическая соединительная линия.27</title>
			<path d="M0 834.8 L43.22 834.8" class="st11"/>
		</g>
		<g id="shape28-93" v:mID="28" v:groupContext="shape" v:layerMember="1" transform="translate(167.843,-520.987)">
			<title>Динамическая соединительная линия.28</title>
			<path d="M-4.73 841.89 L-4.73 853.66 L-9.44 853.66 L-9.44 875.52" class="st11"/>
		</g>
		<g id="shape29-98" v:mID="29" v:groupContext="shape" v:layerMember="1" transform="translate(153.67,-414.693)">
			<title>Динамическая соединительная линия.29</title>
			<path d="M4.73 841.89 L4.73 853.66 L9.44 853.66 L9.44 874.75" class="st11"/>
		</g>
		<g id="shape30-103" v:mID="30" v:groupContext="shape" v:layerMember="1" transform="translate(140.501,-346.89)">
			<title>Динамическая соединительная линия.30</title>
			<path d="M0 834.8 L-26.81 834.8" class="st11"/>
		</g>
		<g id="shape31-108" v:mID="31" v:groupContext="shape" v:layerMember="1" transform="translate(185.728,-346.89)">
			<title>Динамическая соединительная линия.31</title>
			<path d="M0 834.8 L26.81 834.8" class="st11"/>
		</g>
		<g id="shape32-113" v:mID="32" v:groupContext="shape" v:layerMember="1" transform="translate(255.916,-323.448)">
			<title>Динамическая соединительная линия.32</title>
			<path d="M7.09 841.89 L7.09 879.59" class="st11"/>
		</g>
		<g id="shape33-118" v:mID="33" v:groupContext="shape" v:layerMember="1" transform="translate(56.1406,-323.448)">
			<title>Динамическая соединительная линия.33</title>
			<path d="M7.09 841.89 L7.09 879.59" class="st11"/>
		</g>
		<g id="shape34-123" v:mID="34" v:groupContext="shape" v:layerMember="0" transform="translate(337.563,-630.476)">
			<title>Событие.34</title>
			<desc>Изменение заказа</desc>
			<v:userDefs>
				<v:ud v:nameU="visVersion" v:prompt="" v:val="VT0(15):26"/>
			</v:userDefs>
			<v:textBlock v:margins="rect(2,2,2,2)" v:tabSpace="42.5197"/>
			<v:textRect cx="45.2272" cy="811.361" width="90.46" height="61.0567"/>
			<path d="M9.42 841.89 L81.03 841.89 L90.45 812.12 L81.03 780.83 L9.42 780.83 L0 812.12 L9.42 841.89 Z" class="st1"/>
			<text x="6.48" y="806.56" class="st3" v:langID="1049"><v:paragraph v:horizAlign="1"/><v:tabList/>Изменение <tspan
						x="23.25" dy="1.2em" class="st4">заказа</tspan></text>		</g>
		<g id="shape35-128" v:mID="35" v:groupContext="shape" v:layerMember="0" transform="translate(476.475,-739.964)">
			<title>Событие.35</title>
			<desc>Отмена заказа</desc>
			<v:userDefs>
				<v:ud v:nameU="visVersion" v:prompt="" v:val="VT0(15):26"/>
			</v:userDefs>
			<v:textBlock v:margins="rect(2,2,2,2)" v:tabSpace="42.5197"/>
			<v:textRect cx="45.2272" cy="811.361" width="90.46" height="61.0567"/>
			<path d="M9.42 841.89 L81.03 841.89 L90.45 812.12 L81.03 780.83 L9.42 780.83 L0 812.12 L9.42 841.89 Z" class="st1"/>
			<text x="19.33" y="806.56" class="st3" v:langID="1049"><v:paragraph v:horizAlign="1"/><v:tabList/>Отмена <tspan
						x="23.25" dy="1.2em" class="st4">заказа</tspan></text>		</g>
		<g id="shape36-133" v:mID="36" v:groupContext="shape" v:layerMember="0" transform="translate(337.563,-739.964)">
			<title>Функция.36</title>
			<desc>Заказ отменён</desc>
			<v:userDefs>
				<v:ud v:nameU="visVersion" v:prompt="" v:val="VT0(15):26"/>
			</v:userDefs>
			<v:textBlock v:margins="rect(2,2,2,2)" v:tabSpace="42.5197"/>
			<v:textRect cx="45.2272" cy="811.361" width="90.46" height="61.0567"/>
			<rect x="0" y="780.833" width="90.4544" height="61.0567" rx="11.3068" ry="11.3068" class="st5"/>
			<text x="26.68" y="806.56" class="st3" v:langID="1049"><v:paragraph v:horizAlign="1"/><v:tabList/>Заказ <tspan
						x="15.99" dy="1.2em" class="st4">отменён</tspan></text>		</g>
		<g id="shape38-138" v:mID="38" v:groupContext="shape" v:layerMember="0" transform="translate(499.088,-638.39)">
			<title>Исключающее ИЛИ.38</title>
			<desc>XOR</desc>
			<v:userDefs>
				<v:ud v:nameU="visVersion" v:prompt="" v:val="VT0(15):26"/>
			</v:userDefs>
			<v:textBlock v:margins="rect(2,2,2,2)" v:tabSpace="42.5197"/>
			<v:textRect cx="22.6136" cy="819.276" width="45.23" height="45.2272"/>
			<ellipse cx="22.6136" cy="819.276" rx="22.6136" ry="22.6136" class="st6"/>
			<text x="8.82" y="824.08" class="st3" v:langID="1049"><v:paragraph v:horizAlign="1"/><v:tabList/>XOR</text>		</g>
		<g id="shape39-142" v:mID="39" v:groupContext="shape" v:layerMember="1" transform="translate(514.615,-582.044)">
			<title>Динамическая соединительная линия</title>
			<path d="M7.09 841.89 L7.09 790.78" class="st11"/>
		</g>
		<g id="shape40-147" v:mID="40" v:groupContext="shape" v:layerMember="1" transform="translate(499.088,-653.917)">
			<title>Динамическая соединительная линия.40</title>
			<path d="M0 834.8 L-65.83 834.8" class="st11"/>
		</g>
		<g id="shape41-152" v:mID="41" v:groupContext="shape" v:layerMember="1" transform="translate(514.615,-683.618)">
			<title>Динамическая соединительная линия.41</title>
			<path d="M7.09 841.89 L7.09 790.78" class="st11"/>
		</g>
		<g id="shape42-157" v:mID="42" v:groupContext="shape" v:layerMember="1" transform="translate(476.475,-763.406)">
			<title>Динамическая соединительная линия.42</title>
			<path d="M0 834.8 L-43.22 834.8" class="st11"/>
		</g>
		<g id="shape43-162" v:mID="43" v:groupContext="shape" v:layerMember="1" transform="translate(337.563,-653.917)">
			<title>Динамическая соединительная линия.43</title>
			<path d="M0 834.8 L-20.6 834.8" class="st11"/>
		</g>
		<g id="shape44-167" v:mID="44" v:groupContext="shape" v:layerMember="1" transform="translate(450.836,-459.93)">
			<title>Динамическая соединительная линия.44</title>
			<path d="M0 841.89 L0 831.26 L70.87 831.26 L70.87 780.83" class="st10"/>
		</g>
		<g id="shape45-170" v:mID="45" v:groupContext="shape" v:layerMember="0" transform="translate(82.3318,-747.879)">
			<title>Подразделение.45</title>
			<desc>Менеджер</desc>
			<v:userDefs>
				<v:ud v:nameU="visVersion" v:prompt="" v:val="VT0(15):26"/>
			</v:userDefs>
			<v:textBlock v:margins="rect(2,2,2,2)" v:tabSpace="42.5197"/>
			<v:textRect cx="50.8806" cy="819.276" width="79.15" height="45.2272"/>
			<path d="M90.45 819.28 A45.2272 22.6136 -180 1 0 0 819.28 A45.2272 22.6136 -180 1 0 90.45 819.28 Z" class="st9"/>
			<path d="M90.45 819.28 A45.2272 22.6136 -180 1 0 0 819.28 A45.2272 22.6136 -180 1 0 90.45 819.28" class="st10"/>
			<path d="M11.31 804.47 L11.31 834.12" class="st10"/>
			<text x="13.64" y="824.08" class="st3" v:langID="1049"><v:paragraph v:horizAlign="1"/><v:tabList/>Менеджер</text>		</g>
		<g id="shape46-175" v:mID="46" v:groupContext="shape" v:layerMember="1" transform="translate(127.559,-789.976)">
			<title>Динамическая соединительная линия.46</title>
			<path d="M0 838.76 L0 820.22 L255.23 820.22 L255.23 830.85" class="st10"/>
		</g>
		<g id="shape47-178" v:mID="47" v:groupContext="shape" v:layerMember="1" transform="translate(127.559,-747.879)">
			<title>Динамическая соединительная линия.47</title>
			<path d="M0 841.89 L0 928.76 L93.7 928.76" class="st10"/>
		</g>
		<g id="shape48-181" v:mID="48" v:groupContext="shape" transform="translate(121.025,-781.021)">
			<title>Лист.48</title>
			<desc>Начало</desc>
			<v:textBlock v:margins="rect(4,4,4,4)" v:tabSpace="42.5197"/>
			<v:textRect cx="76" cy="831.89" width="152" height="20"/>
			<rect x="0" y="821.89" width="152" height="20" class="st12"/>
			<text x="51.3" y="836.69" class="st3" v:langID="1049"><v:paragraph v:horizAlign="1"/><v:tabList/>Начало</text>		</g>
		<g id="shape49-184" v:mID="49" v:groupContext="shape" v:layerMember="0" transform="translate(18,-115.456)">
			<title>Событие.49</title>
			<desc>Заказ принят</desc>
			<v:userDefs>
				<v:ud v:nameU="visVersion" v:prompt="" v:val="VT0(15):26"/>
			</v:userDefs>
			<v:textBlock v:margins="rect(2,2,2,2)" v:tabSpace="42.5197"/>
			<v:textRect cx="45.2272" cy="811.361" width="90.46" height="61.0567"/>
			<path d="M9.42 841.89 L81.03 841.89 L90.45 812.12 L81.03 780.83 L9.42 780.83 L0 812.12 L9.42 841.89 Z" class="st1"/>
			<text x="26.68" y="806.56" class="st3" v:langID="1049"><v:paragraph v:horizAlign="1"/><v:tabList/>Заказ <tspan
						x="21.37" dy="1.2em" class="st4">принят</tspan></text>		</g>
		<g id="shape50-188" v:mID="50" v:groupContext="shape" v:layerMember="0" transform="translate(217.775,-115.456)">
			<title>Функция.50</title>
			<desc>Внос заказа в базу данных</desc>
			<v:userDefs>
				<v:ud v:nameU="visVersion" v:prompt="" v:val="VT0(15):26"/>
			</v:userDefs>
			<v:textBlock v:margins="rect(2,2,2,2)" v:tabSpace="42.5197"/>
			<v:textRect cx="45.2272" cy="811.361" width="90.46" height="61.0567"/>
			<rect x="0" y="780.833" width="90.4544" height="61.0567" rx="11.3068" ry="11.3068" class="st7"/>
			<text x="5.22" y="796.96" class="st3" v:langID="1049"><v:paragraph v:horizAlign="1"/><v:tabList/>Внос заказа <tspan
						x="24.49" dy="1.2em" class="st4">в базу </tspan><tspan x="19.58" dy="1.2em" class="st4">данных</tspan></text>		</g>
		<g id="shape51-193" v:mID="51" v:groupContext="shape" v:layerMember="1" transform="translate(56.1406,-219.452)">
			<title>Динамическая соединительная линия.51</title>
			<path d="M7.09 841.89 L7.09 874.35" class="st13"/>
		</g>
		<g id="shape52-199" v:mID="52" v:groupContext="shape" v:layerMember="1" transform="translate(108.454,-138.898)">
			<title>Динамическая соединительная линия.52</title>
			<path d="M0 834.8 L98.84 834.8" class="st13"/>
		</g>
		<g id="shape53-204" v:mID="53" v:groupContext="shape" v:layerMember="0" transform="translate(354.331,-175.812)">
			<title>Подразделение.53</title>
			<desc>Менеджер</desc>
			<v:userDefs>
				<v:ud v:nameU="visVersion" v:prompt="" v:val="VT0(15):26"/>
			</v:userDefs>
			<v:textBlock v:margins="rect(2,2,2,2)" v:tabSpace="42.5197"/>
			<v:textRect cx="50.8806" cy="819.276" width="79.15" height="45.2272"/>
			<path d="M90.45 819.28 A45.2272 22.6136 -180 1 0 0 819.28 A45.2272 22.6136 -180 1 0 90.45 819.28 Z" class="st9"/>
			<path d="M90.45 819.28 A45.2272 22.6136 -180 1 0 0 819.28 A45.2272 22.6136 -180 1 0 90.45 819.28" class="st10"/>
			<path d="M11.31 804.47 L11.31 834.12" class="st10"/>
			<text x="13.64" y="824.08" class="st3" v:langID="1049"><v:paragraph v:horizAlign="1"/><v:tabList/>Менеджер</text>		</g>
		<g id="shape54-209" v:mID="54" v:groupContext="shape" v:layerMember="1" transform="translate(263.002,-115.456)">
			<title>Динамическая соединительная линия.54</title>
			<path d="M0 841.89 L0 852.52 L192.41 852.52 L192.41 758.92 L181.78 758.92" class="st10"/>
		</g>
		<g id="shape55-212" v:mID="55" v:groupContext="shape" v:layerMember="1" transform="translate(308.229,-249.98)">
			<title>Динамическая соединительная линия.55</title>
			<path d="M0 841.89 L10.63 841.89 L10.63 893.44 L46.1 893.44" class="st10"/>
		</g>
	</g>
</svg>
